{"id": "T0", "fps": {"num": 30, "den": 1}, "width": 1280, "height": 720, "sample_rate": 44100, "channels": 2, "channel_layout": 3, "settings": {}, "clips": [{"alpha": {"Points": [{"co": {"X": 1.0, "Y": 1.0}, "interpolation": 2}]}, "anchor": 0, "channel_filter": {"Points": [{"co": {"X": 1.0, "Y": -1.0}, "interpolation": 2}]}, "channel_mapping": {"Points": [{"co": {"X": 1.0, "Y": -1.0}, "interpolation": 2}]}, "crop_height": {"Points": [{"co": {"X": 1.0, "Y": -1.0}, "interpolation": 2}]}, "crop_width": {"Points": [{"co": {"X": 1.0, "Y": -1.0}, "interpolation": 2}]}, "crop_x": {"Points": [{"co": {"X": 1.0, "Y": 0.0}, "interpolation": 2}]}, "crop_y": {"Points": [{"co": {"X": 1.0, "Y": 0.0}, "interpolation": 2}]}, "display": 0, "duration": 50.14834594726562, "effects": [], "end": 49.333333333333336, "gravity": 4, "has_audio": {"Points": [{"co": {"X": 1.0, "Y": -1.0}, "interpolation": 2}]}, "has_video": {"Points": [{"co": {"X": 1.0, "Y": -1.0}, "interpolation": 2}]}, "id": "BW0VOD89XV", "layer": 0, "location_x": {"Points": [{"co": {"X": 1.0, "Y": 0.0}, "interpolation": 2}]}, "location_y": {"Points": [{"co": {"X": 1.0, "Y": 0.0}, "interpolation": 2}]}, "mixing": 0, "perspective_c1_x": {"Points": [{"co": {"X": 1.0, "Y": -1.0}, "interpolation": 2}]}, "perspective_c1_y": {"Points": [{"co": {"X": 1.0, "Y": -1.0}, "interpolation": 2}]}, "perspective_c2_x": {"Points": [{"co": {"X": 1.0, "Y": -1.0}, "interpolation": 2}]}, "perspective_c2_y": {"Points": [{"co": {"X": 1.0, "Y": -1.0}, "interpolation": 2}]}, "perspective_c3_x": {"Points": [{"co": {"X": 1.0, "Y": -1.0}, "interpolation": 2}]}, "perspective_c3_y": {"Points": [{"co": {"X": 1.0, "Y": -1.0}, "interpolation": 2}]}, "perspective_c4_x": {"Points": [{"co": {"X": 1.0, "Y": -1.0}, "interpolation": 2}]}, "perspective_c4_y": {"Points": [{"co": {"X": 1.0, "Y": -1.0}, "interpolation": 2}]}, "position": 0, "reader": {"acodec": "aac", "audio_bit_rate": 96606, "audio_stream_index": 1, "audio_timebase": {"den": 44100, "num": 1}, "channel_layout": 4, "channels": 1, "display_ratio": {"den": 9, "num": 16}, "duration": 50.14834594726562, "file_size": "51955628", "fps": {"den": 30089, "num": 901800}, "has_audio": true, "has_single_image": false, "has_video": true, "height": 720, "interlaced_frame": false, "metadata": {"com.apple.quicktime.creationdate": "2019-01-20T14:49:53-0500", "com.apple.quicktime.location.ISO6709": "+42.8173-073.9337+077.476/", "com.apple.quicktime.make": "Apple", "com.apple.quicktime.model": "iPhone SE", "com.apple.quicktime.software": "12.1.2", "compatible_brands": "qt", "creation_time": "2019-01-20T19:49:53.000000Z", "encoder": "H.264", "handler_name": "Core Media Data Handler", "language": "und", "major_brand": "qt", "minor_version": "0"}, "path": "Project_1\\IMG_0063.MOV", "pixel_format": 0, "pixel_ratio": {"den": 1, "num": 1}, "sample_rate": 44100, "top_field_first": true, "type": "FFmpegReader", "vcodec": "h264", "video_bit_rate": 1036038, "video_length": "1503", "video_stream_index": 0, "video_timebase": {"den": 600, "num": 1}, "width": 1280}, "rotation": {"Points": [{"co": {"X": 1.0, "Y": 0.0}, "interpolation": 2}]}, "scale": 1, "scale_x": {"Points": [{"co": {"X": 1.0, "Y": 1.0}, "interpolation": 2}]}, "scale_y": {"Points": [{"co": {"X": 1.0, "Y": 1.0}, "interpolation": 2}]}, "shear_x": {"Points": [{"co": {"X": 1.0, "Y": 0.0}, "interpolation": 2}]}, "shear_y": {"Points": [{"co": {"X": 1.0, "Y": 0.0}, "interpolation": 2}]}, "start": 1.7, "time": {"Points": [{"co": {"X": 1.0, "Y": 1.0}, "interpolation": 2}]}, "volume": {"Points": [{"co": {"X": 1.0, "Y": 1.0}, "interpolation": 2}]}, "wave_color": {"alpha": {"Points": [{"co": {"X": 1.0, "Y": 255.0}, "handle_left": {"X": 0.5, "Y": 1.0}, "handle_right": {"X": 0.5, "Y": 0.0}, "handle_type": 0, "interpolation": 0}]}, "blue": {"Points": [{"co": {"X": 1.0, "Y": 255.0}, "handle_left": {"X": 0.5, "Y": 1.0}, "handle_right": {"X": 0.5, "Y": 0.0}, "handle_type": 0, "interpolation": 0}]}, "green": {"Points": [{"co": {"X": 1.0, "Y": 123.0}, "handle_left": {"X": 0.5, "Y": 1.0}, "handle_right": {"X": 0.5, "Y": 0.0}, "handle_type": 0, "interpolation": 0}]}, "red": {"Points": [{"co": {"X": 1.0, "Y": 0.0}, "handle_left": {"X": 0.5, "Y": 1.0}, "handle_right": {"X": 0.5, "Y": 0.0}, "handle_type": 0, "interpolation": 0}]}}, "waveform": false, "file_id": "EMGLE8MLVI", "title": "IMG_0063.MOV", "image": "..\\..\\Users\\Brian Zick\\.openshot_qt\\thumbnail\\BW0VOD89XV-52.png"}, {"alpha": {"Points": [{"co": {"X": 1.0, "Y": 1.0}, "interpolation": 2}]}, "anchor": 0, "channel_filter": {"Points": [{"co": {"X": 1.0, "Y": -1.0}, "interpolation": 2}]}, "channel_mapping": {"Points": [{"co": {"X": 1.0, "Y": -1.0}, "interpolation": 2}]}, "crop_height": {"Points": [{"co": {"X": 1.0, "Y": -1.0}, "interpolation": 2}]}, "crop_width": {"Points": [{"co": {"X": 1.0, "Y": -1.0}, "interpolation": 2}]}, "crop_x": {"Points": [{"co": {"X": 1.0, "Y": 0.0}, "interpolation": 2}]}, "crop_y": {"Points": [{"co": {"X": 1.0, "Y": 0.0}, "interpolation": 2}]}, "display": 0, "duration": 59.74333190917969, "effects": [], "end": 59.74333190917969, "gravity": 4, "has_audio": {"Points": [{"co": {"X": 1.0, "Y": -1.0}, "interpolation": 2}]}, "has_video": {"Points": [{"co": {"X": 1.0, "Y": -1.0}, "interpolation": 2}]}, "id": "QI504T8BNG", "layer": 0, "location_x": {"Points": [{"co": {"X": 1.0, "Y": 0.0}, "interpolation": 2}]}, "location_y": {"Points": [{"co": {"X": 1.0, "Y": 0.0}, "interpolation": 2}]}, "mixing": 0, "perspective_c1_x": {"Points": [{"co": {"X": 1.0, "Y": -1.0}, "interpolation": 2}]}, "perspective_c1_y": {"Points": [{"co": {"X": 1.0, "Y": -1.0}, "interpolation": 2}]}, "perspective_c2_x": {"Points": [{"co": {"X": 1.0, "Y": -1.0}, "interpolation": 2}]}, "perspective_c2_y": {"Points": [{"co": {"X": 1.0, "Y": -1.0}, "interpolation": 2}]}, "perspective_c3_x": {"Points": [{"co": {"X": 1.0, "Y": -1.0}, "interpolation": 2}]}, "perspective_c3_y": {"Points": [{"co": {"X": 1.0, "Y": -1.0}, "interpolation": 2}]}, "perspective_c4_x": {"Points": [{"co": {"X": 1.0, "Y": -1.0}, "interpolation": 2}]}, "perspective_c4_y": {"Points": [{"co": {"X": 1.0, "Y": -1.0}, "interpolation": 2}]}, "position": 47.63333333333333, "reader": {"acodec": "aac", "audio_bit_rate": 101956, "audio_stream_index": 1, "audio_timebase": {"den": 44100, "num": 1}, "channel_layout": 4, "channels": 1, "display_ratio": {"den": 9, "num": 16}, "duration": 59.74333190917969, "file_size": "115531413", "fps": {"den": 17923, "num": 537300}, "has_audio": true, "has_single_image": false, "has_video": true, "height": 1080, "interlaced_frame": false, "metadata": {"com.apple.quicktime.creationdate": "2019-01-20T14:53:44-0500", "com.apple.quicktime.location.ISO6709": "+42.8173-073.9336+072.386/", "com.apple.quicktime.make": "Apple", "com.apple.quicktime.model": "iPhone SE", "com.apple.quicktime.software": "12.1.2", "compatible_brands": "qt", "creation_time": "2019-01-20T19:53:44.000000Z", "encoder": "H.264", "handler_name": "Core Media Data Handler", "language": "und", "major_brand": "qt", "minor_version": "0"}, "path": "Project_1\\IMG_0064.MOV", "pixel_format": 0, "pixel_ratio": {"den": 1, "num": 1}, "sample_rate": 44100, "top_field_first": true, "type": "FFmpegReader", "vcodec": "h264", "video_bit_rate": 1933795, "video_length": "1791", "video_stream_index": 0, "video_timebase": {"den": 600, "num": 1}, "width": 1920}, "rotation": {"Points": [{"co": {"X": 1.0, "Y": 0.0}, "interpolation": 2}]}, "scale": 1, "scale_x": {"Points": [{"co": {"X": 1.0, "Y": 1.0}, "interpolation": 2}]}, "scale_y": {"Points": [{"co": {"X": 1.0, "Y": 1.0}, "interpolation": 2}]}, "shear_x": {"Points": [{"co": {"X": 1.0, "Y": 0.0}, "interpolation": 2}]}, "shear_y": {"Points": [{"co": {"X": 1.0, "Y": 0.0}, "interpolation": 2}]}, "start": 0, "time": {"Points": [{"co": {"X": 1.0, "Y": 1.0}, "interpolation": 2}]}, "volume": {"Points": [{"co": {"X": 1.0, "Y": 1.0}, "interpolation": 2}]}, "wave_color": {"alpha": {"Points": [{"co": {"X": 1.0, "Y": 255.0}, "handle_left": {"X": 0.5, "Y": 1.0}, "handle_right": {"X": 0.5, "Y": 0.0}, "handle_type": 0, "interpolation": 0}]}, "blue": {"Points": [{"co": {"X": 1.0, "Y": 255.0}, "handle_left": {"X": 0.5, "Y": 1.0}, "handle_right": {"X": 0.5, "Y": 0.0}, "handle_type": 0, "interpolation": 0}]}, "green": {"Points": [{"co": {"X": 1.0, "Y": 123.0}, "handle_left": {"X": 0.5, "Y": 1.0}, "handle_right": {"X": 0.5, "Y": 0.0}, "handle_type": 0, "interpolation": 0}]}, "red": {"Points": [{"co": {"X": 1.0, "Y": 0.0}, "handle_left": {"X": 0.5, "Y": 1.0}, "handle_right": {"X": 0.5, "Y": 0.0}, "handle_type": 0, "interpolation": 0}]}}, "waveform": false, "file_id": "IHHLVRNJG1", "title": "IMG_0064.MOV", "image": "..\\..\\Users\\Brian Zick\\.openshot_qt\\thumbnail\\IHHLVRNJG1.png"}, {"alpha": {"Points": [{"co": {"X": 1.0, "Y": 1.0}, "interpolation": 2}]}, "anchor": 0, "channel_filter": {"Points": [{"co": {"X": 1.0, "Y": -1.0}, "interpolation": 2}]}, "channel_mapping": {"Points": [{"co": {"X": 1.0, "Y": -1.0}, "interpolation": 2}]}, "crop_height": {"Points": [{"co": {"X": 1.0, "Y": -1.0}, "interpolation": 2}]}, "crop_width": {"Points": [{"co": {"X": 1.0, "Y": -1.0}, "interpolation": 2}]}, "crop_x": {"Points": [{"co": {"X": 1.0, "Y": 0.0}, "interpolation": 2}]}, "crop_y": {"Points": [{"co": {"X": 1.0, "Y": 0.0}, "interpolation": 2}]}, "display": 0, "duration": 47.96834564208984, "effects": [], "end": 46.93333333333334, "gravity": 4, "has_audio": {"Points": [{"co": {"X": 1.0, "Y": -1.0}, "interpolation": 2}]}, "has_video": {"Points": [{"co": {"X": 1.0, "Y": -1.0}, "interpolation": 2}]}, "id": "VW73LROR7B", "layer": 0, "location_x": {"Points": [{"co": {"X": 1.0, "Y": 0.0}, "interpolation": 2}]}, "location_y": {"Points": [{"co": {"X": 1.0, "Y": 0.0}, "interpolation": 2}]}, "mixing": 0, "perspective_c1_x": {"Points": [{"co": {"X": 1.0, "Y": -1.0}, "interpolation": 2}]}, "perspective_c1_y": {"Points": [{"co": {"X": 1.0, "Y": -1.0}, "interpolation": 2}]}, "perspective_c2_x": {"Points": [{"co": {"X": 1.0, "Y": -1.0}, "interpolation": 2}]}, "perspective_c2_y": {"Points": [{"co": {"X": 1.0, "Y": -1.0}, "interpolation": 2}]}, "perspective_c3_x": {"Points": [{"co": {"X": 1.0, "Y": -1.0}, "interpolation": 2}]}, "perspective_c3_y": {"Points": [{"co": {"X": 1.0, "Y": -1.0}, "interpolation": 2}]}, "perspective_c4_x": {"Points": [{"co": {"X": 1.0, "Y": -1.0}, "interpolation": 2}]}, "perspective_c4_y": {"Points": [{"co": {"X": 1.0, "Y": -1.0}, "interpolation": 2}]}, "position": 107.36666666666666, "reader": {"acodec": "aac", "audio_bit_rate": 100734, "audio_stream_index": 1, "audio_timebase": {"den": 44100, "num": 1}, "channel_layout": 4, "channels": 1, "display_ratio": {"den": 9, "num": 16}, "duration": 47.96834564208984, "file_size": "93194432", "fps": {"den": 28781, "num": 862800}, "has_audio": true, "has_single_image": false, "has_video": true, "height": 1080, "interlaced_frame": false, "metadata": {"com.apple.quicktime.creationdate": "2019-01-20T14:58:37-0500", "com.apple.quicktime.location.ISO6709": "+42.8173-073.9336+075.832/", "com.apple.quicktime.make": "Apple", "com.apple.quicktime.model": "iPhone SE", "com.apple.quicktime.software": "12.1.2", "compatible_brands": "qt", "creation_time": "2019-01-20T19:58:37.000000Z", "encoder": "H.264", "handler_name": "Core Media Data Handler", "language": "und", "major_brand": "qt", "minor_version": "0"}, "path": "Project_1\\IMG_0065.MOV", "pixel_format": 0, "pixel_ratio": {"den": 1, "num": 1}, "sample_rate": 44100, "top_field_first": true, "type": "FFmpegReader", "vcodec": "h264", "video_bit_rate": 1942832, "video_length": "1438", "video_stream_index": 0, "video_timebase": {"den": 600, "num": 1}, "width": 1920}, "rotation": {"Points": [{"co": {"X": 1.0, "Y": 0.0}, "interpolation": 2}]}, "scale": 1, "scale_x": {"Points": [{"co": {"X": 1.0, "Y": 1.0}, "interpolation": 2}]}, "scale_y": {"Points": [{"co": {"X": 1.0, "Y": 1.0}, "interpolation": 2}]}, "shear_x": {"Points": [{"co": {"X": 1.0, "Y": 0.0}, "interpolation": 2}]}, "shear_y": {"Points": [{"co": {"X": 1.0, "Y": 0.0}, "interpolation": 2}]}, "start": 5.066666666666677, "time": {"Points": [{"co": {"X": 1.0, "Y": 1.0}, "interpolation": 2}]}, "volume": {"Points": [{"co": {"X": 1.0, "Y": 1.0}, "interpolation": 2}]}, "wave_color": {"alpha": {"Points": [{"co": {"X": 1.0, "Y": 255.0}, "handle_left": {"X": 0.5, "Y": 1.0}, "handle_right": {"X": 0.5, "Y": 0.0}, "handle_type": 0, "interpolation": 0}]}, "blue": {"Points": [{"co": {"X": 1.0, "Y": 255.0}, "handle_left": {"X": 0.5, "Y": 1.0}, "handle_right": {"X": 0.5, "Y": 0.0}, "handle_type": 0, "interpolation": 0}]}, "green": {"Points": [{"co": {"X": 1.0, "Y": 123.0}, "handle_left": {"X": 0.5, "Y": 1.0}, "handle_right": {"X": 0.5, "Y": 0.0}, "handle_type": 0, "interpolation": 0}]}, "red": {"Points": [{"co": {"X": 1.0, "Y": 0.0}, "handle_left": {"X": 0.5, "Y": 1.0}, "handle_right": {"X": 0.5, "Y": 0.0}, "handle_type": 0, "interpolation": 0}]}}, "waveform": false, "file_id": "651U5IA9TQ", "title": "IMG_0065.MOV", "image": "..\\..\\Users\\Brian Zick\\.openshot_qt\\thumbnail\\VW73LROR7B-153.png"}], "effects": [], "export_path": "C:/ECE-218/Projects/Project_1", "import_path": "C:/ECE-218/Projects/Project_1", "files": [{"acodec": "aac", "audio_bit_rate": 96606, "audio_stream_index": 1, "audio_timebase": {"den": 44100, "num": 1}, "channel_layout": 4, "channels": 1, "display_ratio": {"den": 9, "num": 16}, "duration": 50.14834594726562, "file_size": "51955628", "fps": {"den": 30089, "num": 901800}, "has_audio": true, "has_single_image": false, "has_video": true, "height": 720, "interlaced_frame": false, "metadata": {"com.apple.quicktime.creationdate": "2019-01-20T14:49:53-0500", "com.apple.quicktime.location.ISO6709": "+42.8173-073.9337+077.476/", "com.apple.quicktime.make": "Apple", "com.apple.quicktime.model": "iPhone SE", "com.apple.quicktime.software": "12.1.2", "compatible_brands": "qt", "creation_time": "2019-01-20T19:49:53.000000Z", "encoder": "H.264", "handler_name": "Core Media Data Handler", "language": "und", "major_brand": "qt", "minor_version": "0"}, "path": "Project_1\\IMG_0063.MOV", "pixel_format": 0, "pixel_ratio": {"den": 1, "num": 1}, "sample_rate": 44100, "top_field_first": true, "type": "FFmpegReader", "vcodec": "h264", "video_bit_rate": 1036038, "video_length": "1503", "video_stream_index": 0, "video_timebase": {"den": 600, "num": 1}, "width": 1280, "media_type": "video", "id": "EMGLE8MLVI"}, {"acodec": "aac", "audio_bit_rate": 101956, "audio_stream_index": 1, "audio_timebase": {"den": 44100, "num": 1}, "channel_layout": 4, "channels": 1, "display_ratio": {"den": 9, "num": 16}, "duration": 59.74333190917969, "file_size": "115531413", "fps": {"den": 17923, "num": 537300}, "has_audio": true, "has_single_image": false, "has_video": true, "height": 1080, "interlaced_frame": false, "metadata": {"com.apple.quicktime.creationdate": "2019-01-20T14:53:44-0500", "com.apple.quicktime.location.ISO6709": "+42.8173-073.9336+072.386/", "com.apple.quicktime.make": "Apple", "com.apple.quicktime.model": "iPhone SE", "com.apple.quicktime.software": "12.1.2", "compatible_brands": "qt", "creation_time": "2019-01-20T19:53:44.000000Z", "encoder": "H.264", "handler_name": "Core Media Data Handler", "language": "und", "major_brand": "qt", "minor_version": "0"}, "path": "Project_1\\IMG_0064.MOV", "pixel_format": 0, "pixel_ratio": {"den": 1, "num": 1}, "sample_rate": 44100, "top_field_first": true, "type": "FFmpegReader", "vcodec": "h264", "video_bit_rate": 1933795, "video_length": "1791", "video_stream_index": 0, "video_timebase": {"den": 600, "num": 1}, "width": 1920, "media_type": "video", "id": "IHHLVRNJG1"}, {"acodec": "aac", "audio_bit_rate": 100734, "audio_stream_index": 1, "audio_timebase": {"den": 44100, "num": 1}, "channel_layout": 4, "channels": 1, "display_ratio": {"den": 9, "num": 16}, "duration": 47.96834564208984, "file_size": "93194432", "fps": {"den": 28781, "num": 862800}, "has_audio": true, "has_single_image": false, "has_video": true, "height": 1080, "interlaced_frame": false, "metadata": {"com.apple.quicktime.creationdate": "2019-01-20T14:58:37-0500", "com.apple.quicktime.location.ISO6709": "+42.8173-073.9336+075.832/", "com.apple.quicktime.make": "Apple", "com.apple.quicktime.model": "iPhone SE", "com.apple.quicktime.software": "12.1.2", "compatible_brands": "qt", "creation_time": "2019-01-20T19:58:37.000000Z", "encoder": "H.264", "handler_name": "Core Media Data Handler", "language": "und", "major_brand": "qt", "minor_version": "0"}, "path": "Project_1\\IMG_0065.MOV", "pixel_format": 0, "pixel_ratio": {"den": 1, "num": 1}, "sample_rate": 44100, "top_field_first": true, "type": "FFmpegReader", "vcodec": "h264", "video_bit_rate": 1942832, "video_length": "1438", "video_stream_index": 0, "video_timebase": {"den": 600, "num": 1}, "width": 1920, "media_type": "video", "id": "651U5IA9TQ"}], "duration": 300, "scale": 15, "tick_pixels": 100, "playhead_position": 0, "profile": "HD 720p 30 fps", "layers": [{"id": "L0", "label": "", "number": 0, "y": 0, "lock": false}, {"id": "L1", "label": "", "number": 1, "y": 0, "lock": false}, {"id": "L2", "label": "", "number": 2, "y": 0, "lock": false}, {"id": "L3", "label": "", "number": 3, "y": 0, "lock": false}, {"id": "L4", "label": "", "number": 4, "y": 0, "lock": false}], "markers": [], "progress": [], "history": {"undo": [{"type": "update", "key": ["import_path"], "value": "C:/ECE-218/Projects/Project_1", "partial": false, "old_values": "C:/ECE-218/Projects/Project_1"}, {"type": "insert", "key": ["clips"], "value": {"alpha": {"Points": [{"co": {"X": 1.0, "Y": 1.0}, "interpolation": 2}]}, "anchor": 0, "channel_filter": {"Points": [{"co": {"X": 1.0, "Y": -1.0}, "interpolation": 2}]}, "channel_mapping": {"Points": [{"co": {"X": 1.0, "Y": -1.0}, "interpolation": 2}]}, "crop_height": {"Points": [{"co": {"X": 1.0, "Y": -1.0}, "interpolation": 2}]}, "crop_width": {"Points": [{"co": {"X": 1.0, "Y": -1.0}, "interpolation": 2}]}, "crop_x": {"Points": [{"co": {"X": 1.0, "Y": 0.0}, "interpolation": 2}]}, "crop_y": {"Points": [{"co": {"X": 1.0, "Y": 0.0}, "interpolation": 2}]}, "display": 0, "duration": 50.14834594726562, "effects": [], "end": 50.14834594726562, "gravity": 4, "has_audio": {"Points": [{"co": {"X": 1.0, "Y": -1.0}, "interpolation": 2}]}, "has_video": {"Points": [{"co": {"X": 1.0, "Y": -1.0}, "interpolation": 2}]}, "id": "3QIBJZUFV3", "layer": 4, "location_x": {"Points": [{"co": {"X": 1.0, "Y": 0.0}, "interpolation": 2}]}, "location_y": {"Points": [{"co": {"X": 1.0, "Y": 0.0}, "interpolation": 2}]}, "mixing": 0, "perspective_c1_x": {"Points": [{"co": {"X": 1.0, "Y": -1.0}, "interpolation": 2}]}, "perspective_c1_y": {"Points": [{"co": {"X": 1.0, "Y": -1.0}, "interpolation": 2}]}, "perspective_c2_x": {"Points": [{"co": {"X": 1.0, "Y": -1.0}, "interpolation": 2}]}, "perspective_c2_y": {"Points": [{"co": {"X": 1.0, "Y": -1.0}, "interpolation": 2}]}, "perspective_c3_x": {"Points": [{"co": {"X": 1.0, "Y": -1.0}, "interpolation": 2}]}, "perspective_c3_y": {"Points": [{"co": {"X": 1.0, "Y": -1.0}, "interpolation": 2}]}, "perspective_c4_x": {"Points": [{"co": {"X": 1.0, "Y": -1.0}, "interpolation": 2}]}, "perspective_c4_y": {"Points": [{"co": {"X": 1.0, "Y": -1.0}, "interpolation": 2}]}, "position": 8.16, "reader": {"acodec": "aac", "audio_bit_rate": 96606, "audio_stream_index": 1, "audio_timebase": {"den": 44100, "num": 1}, "channel_layout": 4, "channels": 1, "display_ratio": {"den": 9, "num": 16}, "duration": 50.14834594726562, "file_size": "51955628", "fps": {"den": 30089, "num": 901800}, "has_audio": true, "has_single_image": false, "has_video": true, "height": 720, "interlaced_frame": false, "metadata": {"com.apple.quicktime.creationdate": "2019-01-20T14:49:53-0500", "com.apple.quicktime.location.ISO6709": "+42.8173-073.9337+077.476/", "com.apple.quicktime.make": "Apple", "com.apple.quicktime.model": "iPhone SE", "com.apple.quicktime.software": "12.1.2", "compatible_brands": "qt", "creation_time": "2019-01-20T19:49:53.000000Z", "encoder": "H.264", "handler_name": "Core Media Data Handler", "language": "und", "major_brand": "qt", "minor_version": "0"}, "path": "C:/ECE-218/Projects/Project_1/IMG_0063.MOV", "pixel_format": 0, "pixel_ratio": {"den": 1, "num": 1}, "sample_rate": 44100, "top_field_first": true, "type": "FFmpegReader", "vcodec": "h264", "video_bit_rate": 1036038, "video_length": "1503", "video_stream_index": 0, "video_timebase": {"den": 600, "num": 1}, "width": 1280}, "rotation": {"Points": [{"co": {"X": 1.0, "Y": 0.0}, "interpolation": 2}]}, "scale": 1, "scale_x": {"Points": [{"co": {"X": 1.0, "Y": 1.0}, "interpolation": 2}]}, "scale_y": {"Points": [{"co": {"X": 1.0, "Y": 1.0}, "interpolation": 2}]}, "shear_x": {"Points": [{"co": {"X": 1.0, "Y": 0.0}, "interpolation": 2}]}, "shear_y": {"Points": [{"co": {"X": 1.0, "Y": 0.0}, "interpolation": 2}]}, "start": 0.0, "time": {"Points": [{"co": {"X": 1.0, "Y": 1.0}, "interpolation": 2}]}, "volume": {"Points": [{"co": {"X": 1.0, "Y": 1.0}, "interpolation": 2}]}, "wave_color": {"alpha": {"Points": [{"co": {"X": 1.0, "Y": 255.0}, "handle_left": {"X": 0.5, "Y": 1.0}, "handle_right": {"X": 0.5, "Y": 0.0}, "handle_type": 0, "interpolation": 0}]}, "blue": {"Points": [{"co": {"X": 1.0, "Y": 255.0}, "handle_left": {"X": 0.5, "Y": 1.0}, "handle_right": {"X": 0.5, "Y": 0.0}, "handle_type": 0, "interpolation": 0}]}, "green": {"Points": [{"co": {"X": 1.0, "Y": 123.0}, "handle_left": {"X": 0.5, "Y": 1.0}, "handle_right": {"X": 0.5, "Y": 0.0}, "handle_type": 0, "interpolation": 0}]}, "red": {"Points": [{"co": {"X": 1.0, "Y": 0.0}, "handle_left": {"X": 0.5, "Y": 1.0}, "handle_right": {"X": 0.5, "Y": 0.0}, "handle_type": 0, "interpolation": 0}]}}, "waveform": false, "file_id": "EMGLE8MLVI", "title": "IMG_0063.MOV", "image": "C:\\Users\\Brian Zick\\.openshot_qt\\thumbnail\\EMGLE8MLVI.png"}, "partial": false, "old_values": []}, {"type": "delete", "key": ["clips", {"id": "3QIBJZUFV3"}], "value": null, "partial": false, "old_values": {"alpha": {"Points": [{"co": {"X": 1.0, "Y": 1.0}, "interpolation": 2}]}, "anchor": 0, "channel_filter": {"Points": [{"co": {"X": 1.0, "Y": -1.0}, "interpolation": 2}]}, "channel_mapping": {"Points": [{"co": {"X": 1.0, "Y": -1.0}, "interpolation": 2}]}, "crop_height": {"Points": [{"co": {"X": 1.0, "Y": -1.0}, "interpolation": 2}]}, "crop_width": {"Points": [{"co": {"X": 1.0, "Y": -1.0}, "interpolation": 2}]}, "crop_x": {"Points": [{"co": {"X": 1.0, "Y": 0.0}, "interpolation": 2}]}, "crop_y": {"Points": [{"co": {"X": 1.0, "Y": 0.0}, "interpolation": 2}]}, "display": 0, "duration": 50.14834594726562, "effects": [], "end": 50.14834594726562, "gravity": 4, "has_audio": {"Points": [{"co": {"X": 1.0, "Y": -1.0}, "interpolation": 2}]}, "has_video": {"Points": [{"co": {"X": 1.0, "Y": -1.0}, "interpolation": 2}]}, "id": "3QIBJZUFV3", "layer": 4, "location_x": {"Points": [{"co": {"X": 1.0, "Y": 0.0}, "interpolation": 2}]}, "location_y": {"Points": [{"co": {"X": 1.0, "Y": 0.0}, "interpolation": 2}]}, "mixing": 0, "perspective_c1_x": {"Points": [{"co": {"X": 1.0, "Y": -1.0}, "interpolation": 2}]}, "perspective_c1_y": {"Points": [{"co": {"X": 1.0, "Y": -1.0}, "interpolation": 2}]}, "perspective_c2_x": {"Points": [{"co": {"X": 1.0, "Y": -1.0}, "interpolation": 2}]}, "perspective_c2_y": {"Points": [{"co": {"X": 1.0, "Y": -1.0}, "interpolation": 2}]}, "perspective_c3_x": {"Points": [{"co": {"X": 1.0, "Y": -1.0}, "interpolation": 2}]}, "perspective_c3_y": {"Points": [{"co": {"X": 1.0, "Y": -1.0}, "interpolation": 2}]}, "perspective_c4_x": {"Points": [{"co": {"X": 1.0, "Y": -1.0}, "interpolation": 2}]}, "perspective_c4_y": {"Points": [{"co": {"X": 1.0, "Y": -1.0}, "interpolation": 2}]}, "position": 8.16, "reader": {"acodec": "aac", "audio_bit_rate": 96606, "audio_stream_index": 1, "audio_timebase": {"den": 44100, "num": 1}, "channel_layout": 4, "channels": 1, "display_ratio": {"den": 9, "num": 16}, "duration": 50.14834594726562, "file_size": "51955628", "fps": {"den": 30089, "num": 901800}, "has_audio": true, "has_single_image": false, "has_video": true, "height": 720, "interlaced_frame": false, "metadata": {"com.apple.quicktime.creationdate": "2019-01-20T14:49:53-0500", "com.apple.quicktime.location.ISO6709": "+42.8173-073.9337+077.476/", "com.apple.quicktime.make": "Apple", "com.apple.quicktime.model": "iPhone SE", "com.apple.quicktime.software": "12.1.2", "compatible_brands": "qt", "creation_time": "2019-01-20T19:49:53.000000Z", "encoder": "H.264", "handler_name": "Core Media Data Handler", "language": "und", "major_brand": "qt", "minor_version": "0"}, "path": "C:/ECE-218/Projects/Project_1/IMG_0063.MOV", "pixel_format": 0, "pixel_ratio": {"den": 1, "num": 1}, "sample_rate": 44100, "top_field_first": true, "type": "FFmpegReader", "vcodec": "h264", "video_bit_rate": 1036038, "video_length": "1503", "video_stream_index": 0, "video_timebase": {"den": 600, "num": 1}, "width": 1280}, "rotation": {"Points": [{"co": {"X": 1.0, "Y": 0.0}, "interpolation": 2}]}, "scale": 1, "scale_x": {"Points": [{"co": {"X": 1.0, "Y": 1.0}, "interpolation": 2}]}, "scale_y": {"Points": [{"co": {"X": 1.0, "Y": 1.0}, "interpolation": 2}]}, "shear_x": {"Points": [{"co": {"X": 1.0, "Y": 0.0}, "interpolation": 2}]}, "shear_y": {"Points": [{"co": {"X": 1.0, "Y": 0.0}, "interpolation": 2}]}, "start": 0.0, "time": {"Points": [{"co": {"X": 1.0, "Y": 1.0}, "interpolation": 2}]}, "volume": {"Points": [{"co": {"X": 1.0, "Y": 1.0}, "interpolation": 2}]}, "wave_color": {"alpha": {"Points": [{"co": {"X": 1.0, "Y": 255.0}, "handle_left": {"X": 0.5, "Y": 1.0}, "handle_right": {"X": 0.5, "Y": 0.0}, "handle_type": 0, "interpolation": 0}]}, "blue": {"Points": [{"co": {"X": 1.0, "Y": 255.0}, "handle_left": {"X": 0.5, "Y": 1.0}, "handle_right": {"X": 0.5, "Y": 0.0}, "handle_type": 0, "interpolation": 0}]}, "green": {"Points": [{"co": {"X": 1.0, "Y": 123.0}, "handle_left": {"X": 0.5, "Y": 1.0}, "handle_right": {"X": 0.5, "Y": 0.0}, "handle_type": 0, "interpolation": 0}]}, "red": {"Points": [{"co": {"X": 1.0, "Y": 0.0}, "handle_left": {"X": 0.5, "Y": 1.0}, "handle_right": {"X": 0.5, "Y": 0.0}, "handle_type": 0, "interpolation": 0}]}}, "waveform": false, "file_id": "EMGLE8MLVI", "title": "IMG_0063.MOV", "image": "C:\\Users\\Brian Zick\\.openshot_qt\\thumbnail\\EMGLE8MLVI.png"}}, {"type": "insert", "key": ["clips"], "value": {"alpha": {"Points": [{"co": {"X": 1.0, "Y": 1.0}, "interpolation": 2}]}, "anchor": 0, "channel_filter": {"Points": [{"co": {"X": 1.0, "Y": -1.0}, "interpolation": 2}]}, "channel_mapping": {"Points": [{"co": {"X": 1.0, "Y": -1.0}, "interpolation": 2}]}, "crop_height": {"Points": [{"co": {"X": 1.0, "Y": -1.0}, "interpolation": 2}]}, "crop_width": {"Points": [{"co": {"X": 1.0, "Y": -1.0}, "interpolation": 2}]}, "crop_x": {"Points": [{"co": {"X": 1.0, "Y": 0.0}, "interpolation": 2}]}, "crop_y": {"Points": [{"co": {"X": 1.0, "Y": 0.0}, "interpolation": 2}]}, "display": 0, "duration": 50.14834594726562, "effects": [], "end": 49.333333333333336, "gravity": 4, "has_audio": {"Points": [{"co": {"X": 1.0, "Y": -1.0}, "interpolation": 2}]}, "has_video": {"Points": [{"co": {"X": 1.0, "Y": -1.0}, "interpolation": 2}]}, "id": "BW0VOD89XV", "layer": 0, "location_x": {"Points": [{"co": {"X": 1.0, "Y": 0.0}, "interpolation": 2}]}, "location_y": {"Points": [{"co": {"X": 1.0, "Y": 0.0}, "interpolation": 2}]}, "mixing": 0, "perspective_c1_x": {"Points": [{"co": {"X": 1.0, "Y": -1.0}, "interpolation": 2}]}, "perspective_c1_y": {"Points": [{"co": {"X": 1.0, "Y": -1.0}, "interpolation": 2}]}, "perspective_c2_x": {"Points": [{"co": {"X": 1.0, "Y": -1.0}, "interpolation": 2}]}, "perspective_c2_y": {"Points": [{"co": {"X": 1.0, "Y": -1.0}, "interpolation": 2}]}, "perspective_c3_x": {"Points": [{"co": {"X": 1.0, "Y": -1.0}, "interpolation": 2}]}, "perspective_c3_y": {"Points": [{"co": {"X": 1.0, "Y": -1.0}, "interpolation": 2}]}, "perspective_c4_x": {"Points": [{"co": {"X": 1.0, "Y": -1.0}, "interpolation": 2}]}, "perspective_c4_y": {"Points": [{"co": {"X": 1.0, "Y": -1.0}, "interpolation": 2}]}, "position": 0, "reader": {"acodec": "aac", "audio_bit_rate": 96606, "audio_stream_index": 1, "audio_timebase": {"den": 44100, "num": 1}, "channel_layout": 4, "channels": 1, "display_ratio": {"den": 9, "num": 16}, "duration": 50.14834594726562, "file_size": "51955628", "fps": {"den": 30089, "num": 901800}, "has_audio": true, "has_single_image": false, "has_video": true, "height": 720, "interlaced_frame": false, "metadata": {"com.apple.quicktime.creationdate": "2019-01-20T14:49:53-0500", "com.apple.quicktime.location.ISO6709": "+42.8173-073.9337+077.476/", "com.apple.quicktime.make": "Apple", "com.apple.quicktime.model": "iPhone SE", "com.apple.quicktime.software": "12.1.2", "compatible_brands": "qt", "creation_time": "2019-01-20T19:49:53.000000Z", "encoder": "H.264", "handler_name": "Core Media Data Handler", "language": "und", "major_brand": "qt", "minor_version": "0"}, "path": "C:\\ECE-218\\Projects\\Project_1\\IMG_0063.MOV", "pixel_format": 0, "pixel_ratio": {"den": 1, "num": 1}, "sample_rate": 44100, "top_field_first": true, "type": "FFmpegReader", "vcodec": "h264", "video_bit_rate": 1036038, "video_length": "1503", "video_stream_index": 0, "video_timebase": {"den": 600, "num": 1}, "width": 1280}, "rotation": {"Points": [{"co": {"X": 1.0, "Y": 0.0}, "interpolation": 2}]}, "scale": 1, "scale_x": {"Points": [{"co": {"X": 1.0, "Y": 1.0}, "interpolation": 2}]}, "scale_y": {"Points": [{"co": {"X": 1.0, "Y": 1.0}, "interpolation": 2}]}, "shear_x": {"Points": [{"co": {"X": 1.0, "Y": 0.0}, "interpolation": 2}]}, "shear_y": {"Points": [{"co": {"X": 1.0, "Y": 0.0}, "interpolation": 2}]}, "start": 1.7, "time": {"Points": [{"co": {"X": 1.0, "Y": 1.0}, "interpolation": 2}]}, "volume": {"Points": [{"co": {"X": 1.0, "Y": 1.0}, "interpolation": 2}]}, "wave_color": {"alpha": {"Points": [{"co": {"X": 1.0, "Y": 255.0}, "handle_left": {"X": 0.5, "Y": 1.0}, "handle_right": {"X": 0.5, "Y": 0.0}, "handle_type": 0, "interpolation": 0}]}, "blue": {"Points": [{"co": {"X": 1.0, "Y": 255.0}, "handle_left": {"X": 0.5, "Y": 1.0}, "handle_right": {"X": 0.5, "Y": 0.0}, "handle_type": 0, "interpolation": 0}]}, "green": {"Points": [{"co": {"X": 1.0, "Y": 123.0}, "handle_left": {"X": 0.5, "Y": 1.0}, "handle_right": {"X": 0.5, "Y": 0.0}, "handle_type": 0, "interpolation": 0}]}, "red": {"Points": [{"co": {"X": 1.0, "Y": 0.0}, "handle_left": {"X": 0.5, "Y": 1.0}, "handle_right": {"X": 0.5, "Y": 0.0}, "handle_type": 0, "interpolation": 0}]}}, "waveform": false, "file_id": "EMGLE8MLVI", "title": "IMG_0063.MOV", "image": "C:\\Users\\Brian Zick\\.openshot_qt\\thumbnail\\BW0VOD89XV-52.png"}, "partial": false, "old_values": []}, {"type": "update", "key": ["clips", {"id": "BW0VOD89XV"}], "value": {"id": "BW0VOD89XV", "layer": 0, "position": 3.68, "image": "C:\\Users\\Brian Zick\\.openshot_qt\\thumbnail\\EMGLE8MLVI.png", "start": 0, "end": 50.14834594726562}, "partial": false, "old_values": {"alpha": {"Points": [{"co": {"X": 1.0, "Y": 1.0}, "interpolation": 2}]}, "anchor": 0, "channel_filter": {"Points": [{"co": {"X": 1.0, "Y": -1.0}, "interpolation": 2}]}, "channel_mapping": {"Points": [{"co": {"X": 1.0, "Y": -1.0}, "interpolation": 2}]}, "crop_height": {"Points": [{"co": {"X": 1.0, "Y": -1.0}, "interpolation": 2}]}, "crop_width": {"Points": [{"co": {"X": 1.0, "Y": -1.0}, "interpolation": 2}]}, "crop_x": {"Points": [{"co": {"X": 1.0, "Y": 0.0}, "interpolation": 2}]}, "crop_y": {"Points": [{"co": {"X": 1.0, "Y": 0.0}, "interpolation": 2}]}, "display": 0, "duration": 50.14834594726562, "effects": [], "end": 50.14834594726562, "gravity": 4, "has_audio": {"Points": [{"co": {"X": 1.0, "Y": -1.0}, "interpolation": 2}]}, "has_video": {"Points": [{"co": {"X": 1.0, "Y": -1.0}, "interpolation": 2}]}, "id": "BW0VOD89XV", "layer": 0, "location_x": {"Points": [{"co": {"X": 1.0, "Y": 0.0}, "interpolation": 2}]}, "location_y": {"Points": [{"co": {"X": 1.0, "Y": 0.0}, "interpolation": 2}]}, "mixing": 0, "perspective_c1_x": {"Points": [{"co": {"X": 1.0, "Y": -1.0}, "interpolation": 2}]}, "perspective_c1_y": {"Points": [{"co": {"X": 1.0, "Y": -1.0}, "interpolation": 2}]}, "perspective_c2_x": {"Points": [{"co": {"X": 1.0, "Y": -1.0}, "interpolation": 2}]}, "perspective_c2_y": {"Points": [{"co": {"X": 1.0, "Y": -1.0}, "interpolation": 2}]}, "perspective_c3_x": {"Points": [{"co": {"X": 1.0, "Y": -1.0}, "interpolation": 2}]}, "perspective_c3_y": {"Points": [{"co": {"X": 1.0, "Y": -1.0}, "interpolation": 2}]}, "perspective_c4_x": {"Points": [{"co": {"X": 1.0, "Y": -1.0}, "interpolation": 2}]}, "perspective_c4_y": {"Points": [{"co": {"X": 1.0, "Y": -1.0}, "interpolation": 2}]}, "position": 2.56, "reader": {"acodec": "aac", "audio_bit_rate": 96606, "audio_stream_index": 1, "audio_timebase": {"den": 44100, "num": 1}, "channel_layout": 4, "channels": 1, "display_ratio": {"den": 9, "num": 16}, "duration": 50.14834594726562, "file_size": "51955628", "fps": {"den": 30089, "num": 901800}, "has_audio": true, "has_single_image": false, "has_video": true, "height": 720, "interlaced_frame": false, "metadata": {"com.apple.quicktime.creationdate": "2019-01-20T14:49:53-0500", "com.apple.quicktime.location.ISO6709": "+42.8173-073.9337+077.476/", "com.apple.quicktime.make": "Apple", "com.apple.quicktime.model": "iPhone SE", "com.apple.quicktime.software": "12.1.2", "compatible_brands": "qt", "creation_time": "2019-01-20T19:49:53.000000Z", "encoder": "H.264", "handler_name": "Core Media Data Handler", "language": "und", "major_brand": "qt", "minor_version": "0"}, "path": "C:/ECE-218/Projects/Project_1/IMG_0063.MOV", "pixel_format": 0, "pixel_ratio": {"den": 1, "num": 1}, "sample_rate": 44100, "top_field_first": true, "type": "FFmpegReader", "vcodec": "h264", "video_bit_rate": 1036038, "video_length": "1503", "video_stream_index": 0, "video_timebase": {"den": 600, "num": 1}, "width": 1280}, "rotation": {"Points": [{"co": {"X": 1.0, "Y": 0.0}, "interpolation": 2}]}, "scale": 1, "scale_x": {"Points": [{"co": {"X": 1.0, "Y": 1.0}, "interpolation": 2}]}, "scale_y": {"Points": [{"co": {"X": 1.0, "Y": 1.0}, "interpolation": 2}]}, "shear_x": {"Points": [{"co": {"X": 1.0, "Y": 0.0}, "interpolation": 2}]}, "shear_y": {"Points": [{"co": {"X": 1.0, "Y": 0.0}, "interpolation": 2}]}, "start": 0.0, "time": {"Points": [{"co": {"X": 1.0, "Y": 1.0}, "interpolation": 2}]}, "volume": {"Points": [{"co": {"X": 1.0, "Y": 1.0}, "interpolation": 2}]}, "wave_color": {"alpha": {"Points": [{"co": {"X": 1.0, "Y": 255.0}, "handle_left": {"X": 0.5, "Y": 1.0}, "handle_right": {"X": 0.5, "Y": 0.0}, "handle_type": 0, "interpolation": 0}]}, "blue": {"Points": [{"co": {"X": 1.0, "Y": 255.0}, "handle_left": {"X": 0.5, "Y": 1.0}, "handle_right": {"X": 0.5, "Y": 0.0}, "handle_type": 0, "interpolation": 0}]}, "green": {"Points": [{"co": {"X": 1.0, "Y": 123.0}, "handle_left": {"X": 0.5, "Y": 1.0}, "handle_right": {"X": 0.5, "Y": 0.0}, "handle_type": 0, "interpolation": 0}]}, "red": {"Points": [{"co": {"X": 1.0, "Y": 0.0}, "handle_left": {"X": 0.5, "Y": 1.0}, "handle_right": {"X": 0.5, "Y": 0.0}, "handle_type": 0, "interpolation": 0}]}}, "waveform": false, "file_id": "EMGLE8MLVI", "title": "IMG_0063.MOV", "image": "C:\\Users\\Brian Zick\\.openshot_qt\\thumbnail\\EMGLE8MLVI.png"}}, {"type": "update", "key": ["clips", {"id": "BW0VOD89XV"}], "value": {"id": "BW0VOD89XV", "layer": 0, "position": 0, "image": "C:\\Users\\Brian Zick\\.openshot_qt\\thumbnail\\EMGLE8MLVI.png", "start": 0, "end": 50.14834594726562}, "partial": false, "old_values": {"alpha": {"Points": [{"co": {"X": 1.0, "Y": 1.0}, "interpolation": 2}]}, "anchor": 0, "channel_filter": {"Points": [{"co": {"X": 1.0, "Y": -1.0}, "interpolation": 2}]}, "channel_mapping": {"Points": [{"co": {"X": 1.0, "Y": -1.0}, "interpolation": 2}]}, "crop_height": {"Points": [{"co": {"X": 1.0, "Y": -1.0}, "interpolation": 2}]}, "crop_width": {"Points": [{"co": {"X": 1.0, "Y": -1.0}, "interpolation": 2}]}, "crop_x": {"Points": [{"co": {"X": 1.0, "Y": 0.0}, "interpolation": 2}]}, "crop_y": {"Points": [{"co": {"X": 1.0, "Y": 0.0}, "interpolation": 2}]}, "display": 0, "duration": 50.14834594726562, "effects": [], "end": 50.14834594726562, "gravity": 4, "has_audio": {"Points": [{"co": {"X": 1.0, "Y": -1.0}, "interpolation": 2}]}, "has_video": {"Points": [{"co": {"X": 1.0, "Y": -1.0}, "interpolation": 2}]}, "id": "BW0VOD89XV", "layer": 0, "location_x": {"Points": [{"co": {"X": 1.0, "Y": 0.0}, "interpolation": 2}]}, "location_y": {"Points": [{"co": {"X": 1.0, "Y": 0.0}, "interpolation": 2}]}, "mixing": 0, "perspective_c1_x": {"Points": [{"co": {"X": 1.0, "Y": -1.0}, "interpolation": 2}]}, "perspective_c1_y": {"Points": [{"co": {"X": 1.0, "Y": -1.0}, "interpolation": 2}]}, "perspective_c2_x": {"Points": [{"co": {"X": 1.0, "Y": -1.0}, "interpolation": 2}]}, "perspective_c2_y": {"Points": [{"co": {"X": 1.0, "Y": -1.0}, "interpolation": 2}]}, "perspective_c3_x": {"Points": [{"co": {"X": 1.0, "Y": -1.0}, "interpolation": 2}]}, "perspective_c3_y": {"Points": [{"co": {"X": 1.0, "Y": -1.0}, "interpolation": 2}]}, "perspective_c4_x": {"Points": [{"co": {"X": 1.0, "Y": -1.0}, "interpolation": 2}]}, "perspective_c4_y": {"Points": [{"co": {"X": 1.0, "Y": -1.0}, "interpolation": 2}]}, "position": 3.68, "reader": {"acodec": "aac", "audio_bit_rate": 96606, "audio_stream_index": 1, "audio_timebase": {"den": 44100, "num": 1}, "channel_layout": 4, "channels": 1, "display_ratio": {"den": 9, "num": 16}, "duration": 50.14834594726562, "file_size": "51955628", "fps": {"den": 30089, "num": 901800}, "has_audio": true, "has_single_image": false, "has_video": true, "height": 720, "interlaced_frame": false, "metadata": {"com.apple.quicktime.creationdate": "2019-01-20T14:49:53-0500", "com.apple.quicktime.location.ISO6709": "+42.8173-073.9337+077.476/", "com.apple.quicktime.make": "Apple", "com.apple.quicktime.model": "iPhone SE", "com.apple.quicktime.software": "12.1.2", "compatible_brands": "qt", "creation_time": "2019-01-20T19:49:53.000000Z", "encoder": "H.264", "handler_name": "Core Media Data Handler", "language": "und", "major_brand": "qt", "minor_version": "0"}, "path": "C:/ECE-218/Projects/Project_1/IMG_0063.MOV", "pixel_format": 0, "pixel_ratio": {"den": 1, "num": 1}, "sample_rate": 44100, "top_field_first": true, "type": "FFmpegReader", "vcodec": "h264", "video_bit_rate": 1036038, "video_length": "1503", "video_stream_index": 0, "video_timebase": {"den": 600, "num": 1}, "width": 1280}, "rotation": {"Points": [{"co": {"X": 1.0, "Y": 0.0}, "interpolation": 2}]}, "scale": 1, "scale_x": {"Points": [{"co": {"X": 1.0, "Y": 1.0}, "interpolation": 2}]}, "scale_y": {"Points": [{"co": {"X": 1.0, "Y": 1.0}, "interpolation": 2}]}, "shear_x": {"Points": [{"co": {"X": 1.0, "Y": 0.0}, "interpolation": 2}]}, "shear_y": {"Points": [{"co": {"X": 1.0, "Y": 0.0}, "interpolation": 2}]}, "start": 0, "time": {"Points": [{"co": {"X": 1.0, "Y": 1.0}, "interpolation": 2}]}, "volume": {"Points": [{"co": {"X": 1.0, "Y": 1.0}, "interpolation": 2}]}, "wave_color": {"alpha": {"Points": [{"co": {"X": 1.0, "Y": 255.0}, "handle_left": {"X": 0.5, "Y": 1.0}, "handle_right": {"X": 0.5, "Y": 0.0}, "handle_type": 0, "interpolation": 0}]}, "blue": {"Points": [{"co": {"X": 1.0, "Y": 255.0}, "handle_left": {"X": 0.5, "Y": 1.0}, "handle_right": {"X": 0.5, "Y": 0.0}, "handle_type": 0, "interpolation": 0}]}, "green": {"Points": [{"co": {"X": 1.0, "Y": 123.0}, "handle_left": {"X": 0.5, "Y": 1.0}, "handle_right": {"X": 0.5, "Y": 0.0}, "handle_type": 0, "interpolation": 0}]}, "red": {"Points": [{"co": {"X": 1.0, "Y": 0.0}, "handle_left": {"X": 0.5, "Y": 1.0}, "handle_right": {"X": 0.5, "Y": 0.0}, "handle_type": 0, "interpolation": 0}]}}, "waveform": false, "file_id": "EMGLE8MLVI", "title": "IMG_0063.MOV", "image": "C:\\Users\\Brian Zick\\.openshot_qt\\thumbnail\\EMGLE8MLVI.png"}}, {"type": "update", "key": ["clips", {"id": "BW0VOD89XV"}], "value": {"id": "BW0VOD89XV", "layer": 0, "position": 1.6, "image": "C:\\Users\\Brian Zick\\.openshot_qt\\thumbnail\\BW0VOD89XV-49.png", "start": 1.6, "end": 50.13333333333333}, "partial": false, "old_values": {"alpha": {"Points": [{"co": {"X": 1.0, "Y": 1.0}, "interpolation": 2}]}, "anchor": 0, "channel_filter": {"Points": [{"co": {"X": 1.0, "Y": -1.0}, "interpolation": 2}]}, "channel_mapping": {"Points": [{"co": {"X": 1.0, "Y": -1.0}, "interpolation": 2}]}, "crop_height": {"Points": [{"co": {"X": 1.0, "Y": -1.0}, "interpolation": 2}]}, "crop_width": {"Points": [{"co": {"X": 1.0, "Y": -1.0}, "interpolation": 2}]}, "crop_x": {"Points": [{"co": {"X": 1.0, "Y": 0.0}, "interpolation": 2}]}, "crop_y": {"Points": [{"co": {"X": 1.0, "Y": 0.0}, "interpolation": 2}]}, "display": 0, "duration": 50.14834594726562, "effects": [], "end": 50.14834594726562, "gravity": 4, "has_audio": {"Points": [{"co": {"X": 1.0, "Y": -1.0}, "interpolation": 2}]}, "has_video": {"Points": [{"co": {"X": 1.0, "Y": -1.0}, "interpolation": 2}]}, "id": "BW0VOD89XV", "layer": 0, "location_x": {"Points": [{"co": {"X": 1.0, "Y": 0.0}, "interpolation": 2}]}, "location_y": {"Points": [{"co": {"X": 1.0, "Y": 0.0}, "interpolation": 2}]}, "mixing": 0, "perspective_c1_x": {"Points": [{"co": {"X": 1.0, "Y": -1.0}, "interpolation": 2}]}, "perspective_c1_y": {"Points": [{"co": {"X": 1.0, "Y": -1.0}, "interpolation": 2}]}, "perspective_c2_x": {"Points": [{"co": {"X": 1.0, "Y": -1.0}, "interpolation": 2}]}, "perspective_c2_y": {"Points": [{"co": {"X": 1.0, "Y": -1.0}, "interpolation": 2}]}, "perspective_c3_x": {"Points": [{"co": {"X": 1.0, "Y": -1.0}, "interpolation": 2}]}, "perspective_c3_y": {"Points": [{"co": {"X": 1.0, "Y": -1.0}, "interpolation": 2}]}, "perspective_c4_x": {"Points": [{"co": {"X": 1.0, "Y": -1.0}, "interpolation": 2}]}, "perspective_c4_y": {"Points": [{"co": {"X": 1.0, "Y": -1.0}, "interpolation": 2}]}, "position": 0, "reader": {"acodec": "aac", "audio_bit_rate": 96606, "audio_stream_index": 1, "audio_timebase": {"den": 44100, "num": 1}, "channel_layout": 4, "channels": 1, "display_ratio": {"den": 9, "num": 16}, "duration": 50.14834594726562, "file_size": "51955628", "fps": {"den": 30089, "num": 901800}, "has_audio": true, "has_single_image": false, "has_video": true, "height": 720, "interlaced_frame": false, "metadata": {"com.apple.quicktime.creationdate": "2019-01-20T14:49:53-0500", "com.apple.quicktime.location.ISO6709": "+42.8173-073.9337+077.476/", "com.apple.quicktime.make": "Apple", "com.apple.quicktime.model": "iPhone SE", "com.apple.quicktime.software": "12.1.2", "compatible_brands": "qt", "creation_time": "2019-01-20T19:49:53.000000Z", "encoder": "H.264", "handler_name": "Core Media Data Handler", "language": "und", "major_brand": "qt", "minor_version": "0"}, "path": "C:/ECE-218/Projects/Project_1/IMG_0063.MOV", "pixel_format": 0, "pixel_ratio": {"den": 1, "num": 1}, "sample_rate": 44100, "top_field_first": true, "type": "FFmpegReader", "vcodec": "h264", "video_bit_rate": 1036038, "video_length": "1503", "video_stream_index": 0, "video_timebase": {"den": 600, "num": 1}, "width": 1280}, "rotation": {"Points": [{"co": {"X": 1.0, "Y": 0.0}, "interpolation": 2}]}, "scale": 1, "scale_x": {"Points": [{"co": {"X": 1.0, "Y": 1.0}, "interpolation": 2}]}, "scale_y": {"Points": [{"co": {"X": 1.0, "Y": 1.0}, "interpolation": 2}]}, "shear_x": {"Points": [{"co": {"X": 1.0, "Y": 0.0}, "interpolation": 2}]}, "shear_y": {"Points": [{"co": {"X": 1.0, "Y": 0.0}, "interpolation": 2}]}, "start": 0, "time": {"Points": [{"co": {"X": 1.0, "Y": 1.0}, "interpolation": 2}]}, "volume": {"Points": [{"co": {"X": 1.0, "Y": 1.0}, "interpolation": 2}]}, "wave_color": {"alpha": {"Points": [{"co": {"X": 1.0, "Y": 255.0}, "handle_left": {"X": 0.5, "Y": 1.0}, "handle_right": {"X": 0.5, "Y": 0.0}, "handle_type": 0, "interpolation": 0}]}, "blue": {"Points": [{"co": {"X": 1.0, "Y": 255.0}, "handle_left": {"X": 0.5, "Y": 1.0}, "handle_right": {"X": 0.5, "Y": 0.0}, "handle_type": 0, "interpolation": 0}]}, "green": {"Points": [{"co": {"X": 1.0, "Y": 123.0}, "handle_left": {"X": 0.5, "Y": 1.0}, "handle_right": {"X": 0.5, "Y": 0.0}, "handle_type": 0, "interpolation": 0}]}, "red": {"Points": [{"co": {"X": 1.0, "Y": 0.0}, "handle_left": {"X": 0.5, "Y": 1.0}, "handle_right": {"X": 0.5, "Y": 0.0}, "handle_type": 0, "interpolation": 0}]}}, "waveform": false, "file_id": "EMGLE8MLVI", "title": "IMG_0063.MOV", "image": "C:\\Users\\Brian Zick\\.openshot_qt\\thumbnail\\EMGLE8MLVI.png"}}, {"type": "update", "key": ["clips", {"id": "BW0VOD89XV"}], "value": {"id": "BW0VOD89XV", "layer": 0, "position": 0, "image": "C:\\Users\\Brian Zick\\.openshot_qt\\thumbnail\\BW0VOD89XV-1.png", "start": 0, "end": 50.13333333333333}, "partial": false, "old_values": {"alpha": {"Points": [{"co": {"X": 1.0, "Y": 1.0}, "interpolation": 2}]}, "anchor": 0, "channel_filter": {"Points": [{"co": {"X": 1.0, "Y": -1.0}, "interpolation": 2}]}, "channel_mapping": {"Points": [{"co": {"X": 1.0, "Y": -1.0}, "interpolation": 2}]}, "crop_height": {"Points": [{"co": {"X": 1.0, "Y": -1.0}, "interpolation": 2}]}, "crop_width": {"Points": [{"co": {"X": 1.0, "Y": -1.0}, "interpolation": 2}]}, "crop_x": {"Points": [{"co": {"X": 1.0, "Y": 0.0}, "interpolation": 2}]}, "crop_y": {"Points": [{"co": {"X": 1.0, "Y": 0.0}, "interpolation": 2}]}, "display": 0, "duration": 50.14834594726562, "effects": [], "end": 50.13333333333333, "gravity": 4, "has_audio": {"Points": [{"co": {"X": 1.0, "Y": -1.0}, "interpolation": 2}]}, "has_video": {"Points": [{"co": {"X": 1.0, "Y": -1.0}, "interpolation": 2}]}, "id": "BW0VOD89XV", "layer": 0, "location_x": {"Points": [{"co": {"X": 1.0, "Y": 0.0}, "interpolation": 2}]}, "location_y": {"Points": [{"co": {"X": 1.0, "Y": 0.0}, "interpolation": 2}]}, "mixing": 0, "perspective_c1_x": {"Points": [{"co": {"X": 1.0, "Y": -1.0}, "interpolation": 2}]}, "perspective_c1_y": {"Points": [{"co": {"X": 1.0, "Y": -1.0}, "interpolation": 2}]}, "perspective_c2_x": {"Points": [{"co": {"X": 1.0, "Y": -1.0}, "interpolation": 2}]}, "perspective_c2_y": {"Points": [{"co": {"X": 1.0, "Y": -1.0}, "interpolation": 2}]}, "perspective_c3_x": {"Points": [{"co": {"X": 1.0, "Y": -1.0}, "interpolation": 2}]}, "perspective_c3_y": {"Points": [{"co": {"X": 1.0, "Y": -1.0}, "interpolation": 2}]}, "perspective_c4_x": {"Points": [{"co": {"X": 1.0, "Y": -1.0}, "interpolation": 2}]}, "perspective_c4_y": {"Points": [{"co": {"X": 1.0, "Y": -1.0}, "interpolation": 2}]}, "position": 1.6, "reader": {"acodec": "aac", "audio_bit_rate": 96606, "audio_stream_index": 1, "audio_timebase": {"den": 44100, "num": 1}, "channel_layout": 4, "channels": 1, "display_ratio": {"den": 9, "num": 16}, "duration": 50.14834594726562, "file_size": "51955628", "fps": {"den": 30089, "num": 901800}, "has_audio": true, "has_single_image": false, "has_video": true, "height": 720, "interlaced_frame": false, "metadata": {"com.apple.quicktime.creationdate": "2019-01-20T14:49:53-0500", "com.apple.quicktime.location.ISO6709": "+42.8173-073.9337+077.476/", "com.apple.quicktime.make": "Apple", "com.apple.quicktime.model": "iPhone SE", "com.apple.quicktime.software": "12.1.2", "compatible_brands": "qt", "creation_time": "2019-01-20T19:49:53.000000Z", "encoder": "H.264", "handler_name": "Core Media Data Handler", "language": "und", "major_brand": "qt", "minor_version": "0"}, "path": "C:/ECE-218/Projects/Project_1/IMG_0063.MOV", "pixel_format": 0, "pixel_ratio": {"den": 1, "num": 1}, "sample_rate": 44100, "top_field_first": true, "type": "FFmpegReader", "vcodec": "h264", "video_bit_rate": 1036038, "video_length": "1503", "video_stream_index": 0, "video_timebase": {"den": 600, "num": 1}, "width": 1280}, "rotation": {"Points": [{"co": {"X": 1.0, "Y": 0.0}, "interpolation": 2}]}, "scale": 1, "scale_x": {"Points": [{"co": {"X": 1.0, "Y": 1.0}, "interpolation": 2}]}, "scale_y": {"Points": [{"co": {"X": 1.0, "Y": 1.0}, "interpolation": 2}]}, "shear_x": {"Points": [{"co": {"X": 1.0, "Y": 0.0}, "interpolation": 2}]}, "shear_y": {"Points": [{"co": {"X": 1.0, "Y": 0.0}, "interpolation": 2}]}, "start": 1.6, "time": {"Points": [{"co": {"X": 1.0, "Y": 1.0}, "interpolation": 2}]}, "volume": {"Points": [{"co": {"X": 1.0, "Y": 1.0}, "interpolation": 2}]}, "wave_color": {"alpha": {"Points": [{"co": {"X": 1.0, "Y": 255.0}, "handle_left": {"X": 0.5, "Y": 1.0}, "handle_right": {"X": 0.5, "Y": 0.0}, "handle_type": 0, "interpolation": 0}]}, "blue": {"Points": [{"co": {"X": 1.0, "Y": 255.0}, "handle_left": {"X": 0.5, "Y": 1.0}, "handle_right": {"X": 0.5, "Y": 0.0}, "handle_type": 0, "interpolation": 0}]}, "green": {"Points": [{"co": {"X": 1.0, "Y": 123.0}, "handle_left": {"X": 0.5, "Y": 1.0}, "handle_right": {"X": 0.5, "Y": 0.0}, "handle_type": 0, "interpolation": 0}]}, "red": {"Points": [{"co": {"X": 1.0, "Y": 0.0}, "handle_left": {"X": 0.5, "Y": 1.0}, "handle_right": {"X": 0.5, "Y": 0.0}, "handle_type": 0, "interpolation": 0}]}}, "waveform": false, "file_id": "EMGLE8MLVI", "title": "IMG_0063.MOV", "image": "C:\\Users\\Brian Zick\\.openshot_qt\\thumbnail\\BW0VOD89XV-49.png"}}, {"type": "update", "key": ["clips", {"id": "BW0VOD89XV"}], "value": {"alpha": {"Points": [{"co": {"X": 1.0, "Y": 1.0}, "interpolation": 2}]}, "anchor": 0, "channel_filter": {"Points": [{"co": {"X": 1.0, "Y": -1.0}, "interpolation": 2}]}, "channel_mapping": {"Points": [{"co": {"X": 1.0, "Y": -1.0}, "interpolation": 2}]}, "crop_height": {"Points": [{"co": {"X": 1.0, "Y": -1.0}, "interpolation": 2}]}, "crop_width": {"Points": [{"co": {"X": 1.0, "Y": -1.0}, "interpolation": 2}]}, "crop_x": {"Points": [{"co": {"X": 1.0, "Y": 0.0}, "interpolation": 2}]}, "crop_y": {"Points": [{"co": {"X": 1.0, "Y": 0.0}, "interpolation": 2}]}, "display": 0, "duration": 50.14834594726562, "effects": [], "end": 50.13333333333333, "gravity": 4, "has_audio": {"Points": [{"co": {"X": 1.0, "Y": -1.0}, "interpolation": 2}]}, "has_video": {"Points": [{"co": {"X": 1.0, "Y": -1.0}, "interpolation": 2}]}, "id": "BW0VOD89XV", "layer": 0, "location_x": {"Points": [{"co": {"X": 1.0, "Y": 0.0}, "interpolation": 2}]}, "location_y": {"Points": [{"co": {"X": 1.0, "Y": 0.0}, "interpolation": 2}]}, "mixing": 0, "perspective_c1_x": {"Points": [{"co": {"X": 1.0, "Y": -1.0}, "interpolation": 2}]}, "perspective_c1_y": {"Points": [{"co": {"X": 1.0, "Y": -1.0}, "interpolation": 2}]}, "perspective_c2_x": {"Points": [{"co": {"X": 1.0, "Y": -1.0}, "interpolation": 2}]}, "perspective_c2_y": {"Points": [{"co": {"X": 1.0, "Y": -1.0}, "interpolation": 2}]}, "perspective_c3_x": {"Points": [{"co": {"X": 1.0, "Y": -1.0}, "interpolation": 2}]}, "perspective_c3_y": {"Points": [{"co": {"X": 1.0, "Y": -1.0}, "interpolation": 2}]}, "perspective_c4_x": {"Points": [{"co": {"X": 1.0, "Y": -1.0}, "interpolation": 2}]}, "perspective_c4_y": {"Points": [{"co": {"X": 1.0, "Y": -1.0}, "interpolation": 2}]}, "position": 1.7, "rotation": {"Points": [{"co": {"X": 1.0, "Y": 0.0}, "interpolation": 2}]}, "scale": 1, "scale_x": {"Points": [{"co": {"X": 1.0, "Y": 1.0}, "interpolation": 2}]}, "scale_y": {"Points": [{"co": {"X": 1.0, "Y": 1.0}, "interpolation": 2}]}, "shear_x": {"Points": [{"co": {"X": 1.0, "Y": 0.0}, "interpolation": 2}]}, "shear_y": {"Points": [{"co": {"X": 1.0, "Y": 0.0}, "interpolation": 2}]}, "start": 1.7, "time": {"Points": [{"co": {"X": 1.0, "Y": 1.0}, "interpolation": 2}]}, "volume": {"Points": [{"co": {"X": 1.0, "Y": 1.0}, "interpolation": 2}]}, "wave_color": {"alpha": {"Points": [{"co": {"X": 1.0, "Y": 255.0}, "handle_left": {"X": 0.5, "Y": 1.0}, "handle_right": {"X": 0.5, "Y": 0.0}, "handle_type": 0, "interpolation": 0}]}, "blue": {"Points": [{"co": {"X": 1.0, "Y": 255.0}, "handle_left": {"X": 0.5, "Y": 1.0}, "handle_right": {"X": 0.5, "Y": 0.0}, "handle_type": 0, "interpolation": 0}]}, "green": {"Points": [{"co": {"X": 1.0, "Y": 123.0}, "handle_left": {"X": 0.5, "Y": 1.0}, "handle_right": {"X": 0.5, "Y": 0.0}, "handle_type": 0, "interpolation": 0}]}, "red": {"Points": [{"co": {"X": 1.0, "Y": 0.0}, "handle_left": {"X": 0.5, "Y": 1.0}, "handle_right": {"X": 0.5, "Y": 0.0}, "handle_type": 0, "interpolation": 0}]}}, "waveform": false, "file_id": "EMGLE8MLVI", "title": "IMG_0063.MOV", "image": "C:\\Users\\Brian Zick\\.openshot_qt\\thumbnail\\BW0VOD89XV-52.png"}, "partial": false, "old_values": {"alpha": {"Points": [{"co": {"X": 1.0, "Y": 1.0}, "interpolation": 2}]}, "anchor": 0, "channel_filter": {"Points": [{"co": {"X": 1.0, "Y": -1.0}, "interpolation": 2}]}, "channel_mapping": {"Points": [{"co": {"X": 1.0, "Y": -1.0}, "interpolation": 2}]}, "crop_height": {"Points": [{"co": {"X": 1.0, "Y": -1.0}, "interpolation": 2}]}, "crop_width": {"Points": [{"co": {"X": 1.0, "Y": -1.0}, "interpolation": 2}]}, "crop_x": {"Points": [{"co": {"X": 1.0, "Y": 0.0}, "interpolation": 2}]}, "crop_y": {"Points": [{"co": {"X": 1.0, "Y": 0.0}, "interpolation": 2}]}, "display": 0, "duration": 50.14834594726562, "effects": [], "end": 50.13333333333333, "gravity": 4, "has_audio": {"Points": [{"co": {"X": 1.0, "Y": -1.0}, "interpolation": 2}]}, "has_video": {"Points": [{"co": {"X": 1.0, "Y": -1.0}, "interpolation": 2}]}, "id": "BW0VOD89XV", "layer": 0, "location_x": {"Points": [{"co": {"X": 1.0, "Y": 0.0}, "interpolation": 2}]}, "location_y": {"Points": [{"co": {"X": 1.0, "Y": 0.0}, "interpolation": 2}]}, "mixing": 0, "perspective_c1_x": {"Points": [{"co": {"X": 1.0, "Y": -1.0}, "interpolation": 2}]}, "perspective_c1_y": {"Points": [{"co": {"X": 1.0, "Y": -1.0}, "interpolation": 2}]}, "perspective_c2_x": {"Points": [{"co": {"X": 1.0, "Y": -1.0}, "interpolation": 2}]}, "perspective_c2_y": {"Points": [{"co": {"X": 1.0, "Y": -1.0}, "interpolation": 2}]}, "perspective_c3_x": {"Points": [{"co": {"X": 1.0, "Y": -1.0}, "interpolation": 2}]}, "perspective_c3_y": {"Points": [{"co": {"X": 1.0, "Y": -1.0}, "interpolation": 2}]}, "perspective_c4_x": {"Points": [{"co": {"X": 1.0, "Y": -1.0}, "interpolation": 2}]}, "perspective_c4_y": {"Points": [{"co": {"X": 1.0, "Y": -1.0}, "interpolation": 2}]}, "position": 0, "reader": {"acodec": "aac", "audio_bit_rate": 96606, "audio_stream_index": 1, "audio_timebase": {"den": 44100, "num": 1}, "channel_layout": 4, "channels": 1, "display_ratio": {"den": 9, "num": 16}, "duration": 50.14834594726562, "file_size": "51955628", "fps": {"den": 30089, "num": 901800}, "has_audio": true, "has_single_image": false, "has_video": true, "height": 720, "interlaced_frame": false, "metadata": {"com.apple.quicktime.creationdate": "2019-01-20T14:49:53-0500", "com.apple.quicktime.location.ISO6709": "+42.8173-073.9337+077.476/", "com.apple.quicktime.make": "Apple", "com.apple.quicktime.model": "iPhone SE", "com.apple.quicktime.software": "12.1.2", "compatible_brands": "qt", "creation_time": "2019-01-20T19:49:53.000000Z", "encoder": "H.264", "handler_name": "Core Media Data Handler", "language": "und", "major_brand": "qt", "minor_version": "0"}, "path": "C:/ECE-218/Projects/Project_1/IMG_0063.MOV", "pixel_format": 0, "pixel_ratio": {"den": 1, "num": 1}, "sample_rate": 44100, "top_field_first": true, "type": "FFmpegReader", "vcodec": "h264", "video_bit_rate": 1036038, "video_length": "1503", "video_stream_index": 0, "video_timebase": {"den": 600, "num": 1}, "width": 1280}, "rotation": {"Points": [{"co": {"X": 1.0, "Y": 0.0}, "interpolation": 2}]}, "scale": 1, "scale_x": {"Points": [{"co": {"X": 1.0, "Y": 1.0}, "interpolation": 2}]}, "scale_y": {"Points": [{"co": {"X": 1.0, "Y": 1.0}, "interpolation": 2}]}, "shear_x": {"Points": [{"co": {"X": 1.0, "Y": 0.0}, "interpolation": 2}]}, "shear_y": {"Points": [{"co": {"X": 1.0, "Y": 0.0}, "interpolation": 2}]}, "start": 0, "time": {"Points": [{"co": {"X": 1.0, "Y": 1.0}, "interpolation": 2}]}, "volume": {"Points": [{"co": {"X": 1.0, "Y": 1.0}, "interpolation": 2}]}, "wave_color": {"alpha": {"Points": [{"co": {"X": 1.0, "Y": 255.0}, "handle_left": {"X": 0.5, "Y": 1.0}, "handle_right": {"X": 0.5, "Y": 0.0}, "handle_type": 0, "interpolation": 0}]}, "blue": {"Points": [{"co": {"X": 1.0, "Y": 255.0}, "handle_left": {"X": 0.5, "Y": 1.0}, "handle_right": {"X": 0.5, "Y": 0.0}, "handle_type": 0, "interpolation": 0}]}, "green": {"Points": [{"co": {"X": 1.0, "Y": 123.0}, "handle_left": {"X": 0.5, "Y": 1.0}, "handle_right": {"X": 0.5, "Y": 0.0}, "handle_type": 0, "interpolation": 0}]}, "red": {"Points": [{"co": {"X": 1.0, "Y": 0.0}, "handle_left": {"X": 0.5, "Y": 1.0}, "handle_right": {"X": 0.5, "Y": 0.0}, "handle_type": 0, "interpolation": 0}]}}, "waveform": false, "file_id": "EMGLE8MLVI", "title": "IMG_0063.MOV", "image": "C:\\Users\\Brian Zick\\.openshot_qt\\thumbnail\\BW0VOD89XV-1.png"}}, {"type": "update", "key": ["clips", {"id": "BW0VOD89XV"}], "value": {"id": "BW0VOD89XV", "layer": 0, "position": 0, "image": "C:\\Users\\Brian Zick\\.openshot_qt\\thumbnail\\BW0VOD89XV-52.png", "start": 1.7, "end": 50.13333333333333}, "partial": false, "old_values": {"alpha": {"Points": [{"co": {"X": 1.0, "Y": 1.0}, "interpolation": 2}]}, "anchor": 0, "channel_filter": {"Points": [{"co": {"X": 1.0, "Y": -1.0}, "interpolation": 2}]}, "channel_mapping": {"Points": [{"co": {"X": 1.0, "Y": -1.0}, "interpolation": 2}]}, "crop_height": {"Points": [{"co": {"X": 1.0, "Y": -1.0}, "interpolation": 2}]}, "crop_width": {"Points": [{"co": {"X": 1.0, "Y": -1.0}, "interpolation": 2}]}, "crop_x": {"Points": [{"co": {"X": 1.0, "Y": 0.0}, "interpolation": 2}]}, "crop_y": {"Points": [{"co": {"X": 1.0, "Y": 0.0}, "interpolation": 2}]}, "display": 0, "duration": 50.14834594726562, "effects": [], "end": 50.13333333333333, "gravity": 4, "has_audio": {"Points": [{"co": {"X": 1.0, "Y": -1.0}, "interpolation": 2}]}, "has_video": {"Points": [{"co": {"X": 1.0, "Y": -1.0}, "interpolation": 2}]}, "id": "BW0VOD89XV", "layer": 0, "location_x": {"Points": [{"co": {"X": 1.0, "Y": 0.0}, "interpolation": 2}]}, "location_y": {"Points": [{"co": {"X": 1.0, "Y": 0.0}, "interpolation": 2}]}, "mixing": 0, "perspective_c1_x": {"Points": [{"co": {"X": 1.0, "Y": -1.0}, "interpolation": 2}]}, "perspective_c1_y": {"Points": [{"co": {"X": 1.0, "Y": -1.0}, "interpolation": 2}]}, "perspective_c2_x": {"Points": [{"co": {"X": 1.0, "Y": -1.0}, "interpolation": 2}]}, "perspective_c2_y": {"Points": [{"co": {"X": 1.0, "Y": -1.0}, "interpolation": 2}]}, "perspective_c3_x": {"Points": [{"co": {"X": 1.0, "Y": -1.0}, "interpolation": 2}]}, "perspective_c3_y": {"Points": [{"co": {"X": 1.0, "Y": -1.0}, "interpolation": 2}]}, "perspective_c4_x": {"Points": [{"co": {"X": 1.0, "Y": -1.0}, "interpolation": 2}]}, "perspective_c4_y": {"Points": [{"co": {"X": 1.0, "Y": -1.0}, "interpolation": 2}]}, "position": 1.7, "reader": {"acodec": "aac", "audio_bit_rate": 96606, "audio_stream_index": 1, "audio_timebase": {"den": 44100, "num": 1}, "channel_layout": 4, "channels": 1, "display_ratio": {"den": 9, "num": 16}, "duration": 50.14834594726562, "file_size": "51955628", "fps": {"den": 30089, "num": 901800}, "has_audio": true, "has_single_image": false, "has_video": true, "height": 720, "interlaced_frame": false, "metadata": {"com.apple.quicktime.creationdate": "2019-01-20T14:49:53-0500", "com.apple.quicktime.location.ISO6709": "+42.8173-073.9337+077.476/", "com.apple.quicktime.make": "Apple", "com.apple.quicktime.model": "iPhone SE", "com.apple.quicktime.software": "12.1.2", "compatible_brands": "qt", "creation_time": "2019-01-20T19:49:53.000000Z", "encoder": "H.264", "handler_name": "Core Media Data Handler", "language": "und", "major_brand": "qt", "minor_version": "0"}, "path": "C:/ECE-218/Projects/Project_1/IMG_0063.MOV", "pixel_format": 0, "pixel_ratio": {"den": 1, "num": 1}, "sample_rate": 44100, "top_field_first": true, "type": "FFmpegReader", "vcodec": "h264", "video_bit_rate": 1036038, "video_length": "1503", "video_stream_index": 0, "video_timebase": {"den": 600, "num": 1}, "width": 1280}, "rotation": {"Points": [{"co": {"X": 1.0, "Y": 0.0}, "interpolation": 2}]}, "scale": 1, "scale_x": {"Points": [{"co": {"X": 1.0, "Y": 1.0}, "interpolation": 2}]}, "scale_y": {"Points": [{"co": {"X": 1.0, "Y": 1.0}, "interpolation": 2}]}, "shear_x": {"Points": [{"co": {"X": 1.0, "Y": 0.0}, "interpolation": 2}]}, "shear_y": {"Points": [{"co": {"X": 1.0, "Y": 0.0}, "interpolation": 2}]}, "start": 1.7, "time": {"Points": [{"co": {"X": 1.0, "Y": 1.0}, "interpolation": 2}]}, "volume": {"Points": [{"co": {"X": 1.0, "Y": 1.0}, "interpolation": 2}]}, "wave_color": {"alpha": {"Points": [{"co": {"X": 1.0, "Y": 255.0}, "handle_left": {"X": 0.5, "Y": 1.0}, "handle_right": {"X": 0.5, "Y": 0.0}, "handle_type": 0, "interpolation": 0}]}, "blue": {"Points": [{"co": {"X": 1.0, "Y": 255.0}, "handle_left": {"X": 0.5, "Y": 1.0}, "handle_right": {"X": 0.5, "Y": 0.0}, "handle_type": 0, "interpolation": 0}]}, "green": {"Points": [{"co": {"X": 1.0, "Y": 123.0}, "handle_left": {"X": 0.5, "Y": 1.0}, "handle_right": {"X": 0.5, "Y": 0.0}, "handle_type": 0, "interpolation": 0}]}, "red": {"Points": [{"co": {"X": 1.0, "Y": 0.0}, "handle_left": {"X": 0.5, "Y": 1.0}, "handle_right": {"X": 0.5, "Y": 0.0}, "handle_type": 0, "interpolation": 0}]}}, "waveform": false, "file_id": "EMGLE8MLVI", "title": "IMG_0063.MOV", "image": "C:\\Users\\Brian Zick\\.openshot_qt\\thumbnail\\BW0VOD89XV-52.png"}}, {"type": "update", "key": ["clips", {"id": "BW0VOD89XV"}], "value": {"alpha": {"Points": [{"co": {"X": 1.0, "Y": 1.0}, "interpolation": 2}]}, "anchor": 0, "channel_filter": {"Points": [{"co": {"X": 1.0, "Y": -1.0}, "interpolation": 2}]}, "channel_mapping": {"Points": [{"co": {"X": 1.0, "Y": -1.0}, "interpolation": 2}]}, "crop_height": {"Points": [{"co": {"X": 1.0, "Y": -1.0}, "interpolation": 2}]}, "crop_width": {"Points": [{"co": {"X": 1.0, "Y": -1.0}, "interpolation": 2}]}, "crop_x": {"Points": [{"co": {"X": 1.0, "Y": 0.0}, "interpolation": 2}]}, "crop_y": {"Points": [{"co": {"X": 1.0, "Y": 0.0}, "interpolation": 2}]}, "display": 0, "duration": 50.14834594726562, "effects": [], "end": 49.333333333333336, "gravity": 4, "has_audio": {"Points": [{"co": {"X": 1.0, "Y": -1.0}, "interpolation": 2}]}, "has_video": {"Points": [{"co": {"X": 1.0, "Y": -1.0}, "interpolation": 2}]}, "id": "BW0VOD89XV", "layer": 0, "location_x": {"Points": [{"co": {"X": 1.0, "Y": 0.0}, "interpolation": 2}]}, "location_y": {"Points": [{"co": {"X": 1.0, "Y": 0.0}, "interpolation": 2}]}, "mixing": 0, "perspective_c1_x": {"Points": [{"co": {"X": 1.0, "Y": -1.0}, "interpolation": 2}]}, "perspective_c1_y": {"Points": [{"co": {"X": 1.0, "Y": -1.0}, "interpolation": 2}]}, "perspective_c2_x": {"Points": [{"co": {"X": 1.0, "Y": -1.0}, "interpolation": 2}]}, "perspective_c2_y": {"Points": [{"co": {"X": 1.0, "Y": -1.0}, "interpolation": 2}]}, "perspective_c3_x": {"Points": [{"co": {"X": 1.0, "Y": -1.0}, "interpolation": 2}]}, "perspective_c3_y": {"Points": [{"co": {"X": 1.0, "Y": -1.0}, "interpolation": 2}]}, "perspective_c4_x": {"Points": [{"co": {"X": 1.0, "Y": -1.0}, "interpolation": 2}]}, "perspective_c4_y": {"Points": [{"co": {"X": 1.0, "Y": -1.0}, "interpolation": 2}]}, "position": 0, "rotation": {"Points": [{"co": {"X": 1.0, "Y": 0.0}, "interpolation": 2}]}, "scale": 1, "scale_x": {"Points": [{"co": {"X": 1.0, "Y": 1.0}, "interpolation": 2}]}, "scale_y": {"Points": [{"co": {"X": 1.0, "Y": 1.0}, "interpolation": 2}]}, "shear_x": {"Points": [{"co": {"X": 1.0, "Y": 0.0}, "interpolation": 2}]}, "shear_y": {"Points": [{"co": {"X": 1.0, "Y": 0.0}, "interpolation": 2}]}, "start": 1.7, "time": {"Points": [{"co": {"X": 1.0, "Y": 1.0}, "interpolation": 2}]}, "volume": {"Points": [{"co": {"X": 1.0, "Y": 1.0}, "interpolation": 2}]}, "wave_color": {"alpha": {"Points": [{"co": {"X": 1.0, "Y": 255.0}, "handle_left": {"X": 0.5, "Y": 1.0}, "handle_right": {"X": 0.5, "Y": 0.0}, "handle_type": 0, "interpolation": 0}]}, "blue": {"Points": [{"co": {"X": 1.0, "Y": 255.0}, "handle_left": {"X": 0.5, "Y": 1.0}, "handle_right": {"X": 0.5, "Y": 0.0}, "handle_type": 0, "interpolation": 0}]}, "green": {"Points": [{"co": {"X": 1.0, "Y": 123.0}, "handle_left": {"X": 0.5, "Y": 1.0}, "handle_right": {"X": 0.5, "Y": 0.0}, "handle_type": 0, "interpolation": 0}]}, "red": {"Points": [{"co": {"X": 1.0, "Y": 0.0}, "handle_left": {"X": 0.5, "Y": 1.0}, "handle_right": {"X": 0.5, "Y": 0.0}, "handle_type": 0, "interpolation": 0}]}}, "waveform": false, "file_id": "EMGLE8MLVI", "title": "IMG_0063.MOV", "image": "C:\\Users\\Brian Zick\\.openshot_qt\\thumbnail\\BW0VOD89XV-52.png"}, "partial": false, "old_values": {"alpha": {"Points": [{"co": {"X": 1.0, "Y": 1.0}, "interpolation": 2}]}, "anchor": 0, "channel_filter": {"Points": [{"co": {"X": 1.0, "Y": -1.0}, "interpolation": 2}]}, "channel_mapping": {"Points": [{"co": {"X": 1.0, "Y": -1.0}, "interpolation": 2}]}, "crop_height": {"Points": [{"co": {"X": 1.0, "Y": -1.0}, "interpolation": 2}]}, "crop_width": {"Points": [{"co": {"X": 1.0, "Y": -1.0}, "interpolation": 2}]}, "crop_x": {"Points": [{"co": {"X": 1.0, "Y": 0.0}, "interpolation": 2}]}, "crop_y": {"Points": [{"co": {"X": 1.0, "Y": 0.0}, "interpolation": 2}]}, "display": 0, "duration": 50.14834594726562, "effects": [], "end": 50.13333333333333, "gravity": 4, "has_audio": {"Points": [{"co": {"X": 1.0, "Y": -1.0}, "interpolation": 2}]}, "has_video": {"Points": [{"co": {"X": 1.0, "Y": -1.0}, "interpolation": 2}]}, "id": "BW0VOD89XV", "layer": 0, "location_x": {"Points": [{"co": {"X": 1.0, "Y": 0.0}, "interpolation": 2}]}, "location_y": {"Points": [{"co": {"X": 1.0, "Y": 0.0}, "interpolation": 2}]}, "mixing": 0, "perspective_c1_x": {"Points": [{"co": {"X": 1.0, "Y": -1.0}, "interpolation": 2}]}, "perspective_c1_y": {"Points": [{"co": {"X": 1.0, "Y": -1.0}, "interpolation": 2}]}, "perspective_c2_x": {"Points": [{"co": {"X": 1.0, "Y": -1.0}, "interpolation": 2}]}, "perspective_c2_y": {"Points": [{"co": {"X": 1.0, "Y": -1.0}, "interpolation": 2}]}, "perspective_c3_x": {"Points": [{"co": {"X": 1.0, "Y": -1.0}, "interpolation": 2}]}, "perspective_c3_y": {"Points": [{"co": {"X": 1.0, "Y": -1.0}, "interpolation": 2}]}, "perspective_c4_x": {"Points": [{"co": {"X": 1.0, "Y": -1.0}, "interpolation": 2}]}, "perspective_c4_y": {"Points": [{"co": {"X": 1.0, "Y": -1.0}, "interpolation": 2}]}, "position": 0, "reader": {"acodec": "aac", "audio_bit_rate": 96606, "audio_stream_index": 1, "audio_timebase": {"den": 44100, "num": 1}, "channel_layout": 4, "channels": 1, "display_ratio": {"den": 9, "num": 16}, "duration": 50.14834594726562, "file_size": "51955628", "fps": {"den": 30089, "num": 901800}, "has_audio": true, "has_single_image": false, "has_video": true, "height": 720, "interlaced_frame": false, "metadata": {"com.apple.quicktime.creationdate": "2019-01-20T14:49:53-0500", "com.apple.quicktime.location.ISO6709": "+42.8173-073.9337+077.476/", "com.apple.quicktime.make": "Apple", "com.apple.quicktime.model": "iPhone SE", "com.apple.quicktime.software": "12.1.2", "compatible_brands": "qt", "creation_time": "2019-01-20T19:49:53.000000Z", "encoder": "H.264", "handler_name": "Core Media Data Handler", "language": "und", "major_brand": "qt", "minor_version": "0"}, "path": "C:/ECE-218/Projects/Project_1/IMG_0063.MOV", "pixel_format": 0, "pixel_ratio": {"den": 1, "num": 1}, "sample_rate": 44100, "top_field_first": true, "type": "FFmpegReader", "vcodec": "h264", "video_bit_rate": 1036038, "video_length": "1503", "video_stream_index": 0, "video_timebase": {"den": 600, "num": 1}, "width": 1280}, "rotation": {"Points": [{"co": {"X": 1.0, "Y": 0.0}, "interpolation": 2}]}, "scale": 1, "scale_x": {"Points": [{"co": {"X": 1.0, "Y": 1.0}, "interpolation": 2}]}, "scale_y": {"Points": [{"co": {"X": 1.0, "Y": 1.0}, "interpolation": 2}]}, "shear_x": {"Points": [{"co": {"X": 1.0, "Y": 0.0}, "interpolation": 2}]}, "shear_y": {"Points": [{"co": {"X": 1.0, "Y": 0.0}, "interpolation": 2}]}, "start": 1.7, "time": {"Points": [{"co": {"X": 1.0, "Y": 1.0}, "interpolation": 2}]}, "volume": {"Points": [{"co": {"X": 1.0, "Y": 1.0}, "interpolation": 2}]}, "wave_color": {"alpha": {"Points": [{"co": {"X": 1.0, "Y": 255.0}, "handle_left": {"X": 0.5, "Y": 1.0}, "handle_right": {"X": 0.5, "Y": 0.0}, "handle_type": 0, "interpolation": 0}]}, "blue": {"Points": [{"co": {"X": 1.0, "Y": 255.0}, "handle_left": {"X": 0.5, "Y": 1.0}, "handle_right": {"X": 0.5, "Y": 0.0}, "handle_type": 0, "interpolation": 0}]}, "green": {"Points": [{"co": {"X": 1.0, "Y": 123.0}, "handle_left": {"X": 0.5, "Y": 1.0}, "handle_right": {"X": 0.5, "Y": 0.0}, "handle_type": 0, "interpolation": 0}]}, "red": {"Points": [{"co": {"X": 1.0, "Y": 0.0}, "handle_left": {"X": 0.5, "Y": 1.0}, "handle_right": {"X": 0.5, "Y": 0.0}, "handle_type": 0, "interpolation": 0}]}}, "waveform": false, "file_id": "EMGLE8MLVI", "title": "IMG_0063.MOV", "image": "C:\\Users\\Brian Zick\\.openshot_qt\\thumbnail\\BW0VOD89XV-52.png"}}, {"type": "insert", "key": ["clips"], "value": {"alpha": {"Points": [{"co": {"X": 1.0, "Y": 1.0}, "interpolation": 2}]}, "anchor": 0, "channel_filter": {"Points": [{"co": {"X": 1.0, "Y": -1.0}, "interpolation": 2}]}, "channel_mapping": {"Points": [{"co": {"X": 1.0, "Y": -1.0}, "interpolation": 2}]}, "crop_height": {"Points": [{"co": {"X": 1.0, "Y": -1.0}, "interpolation": 2}]}, "crop_width": {"Points": [{"co": {"X": 1.0, "Y": -1.0}, "interpolation": 2}]}, "crop_x": {"Points": [{"co": {"X": 1.0, "Y": 0.0}, "interpolation": 2}]}, "crop_y": {"Points": [{"co": {"X": 1.0, "Y": 0.0}, "interpolation": 2}]}, "display": 0, "duration": 59.74333190917969, "effects": [], "end": 59.74333190917969, "gravity": 4, "has_audio": {"Points": [{"co": {"X": 1.0, "Y": -1.0}, "interpolation": 2}]}, "has_video": {"Points": [{"co": {"X": 1.0, "Y": -1.0}, "interpolation": 2}]}, "id": "QI504T8BNG", "layer": 0, "location_x": {"Points": [{"co": {"X": 1.0, "Y": 0.0}, "interpolation": 2}]}, "location_y": {"Points": [{"co": {"X": 1.0, "Y": 0.0}, "interpolation": 2}]}, "mixing": 0, "perspective_c1_x": {"Points": [{"co": {"X": 1.0, "Y": -1.0}, "interpolation": 2}]}, "perspective_c1_y": {"Points": [{"co": {"X": 1.0, "Y": -1.0}, "interpolation": 2}]}, "perspective_c2_x": {"Points": [{"co": {"X": 1.0, "Y": -1.0}, "interpolation": 2}]}, "perspective_c2_y": {"Points": [{"co": {"X": 1.0, "Y": -1.0}, "interpolation": 2}]}, "perspective_c3_x": {"Points": [{"co": {"X": 1.0, "Y": -1.0}, "interpolation": 2}]}, "perspective_c3_y": {"Points": [{"co": {"X": 1.0, "Y": -1.0}, "interpolation": 2}]}, "perspective_c4_x": {"Points": [{"co": {"X": 1.0, "Y": -1.0}, "interpolation": 2}]}, "perspective_c4_y": {"Points": [{"co": {"X": 1.0, "Y": -1.0}, "interpolation": 2}]}, "position": 47.63333333333333, "reader": {"acodec": "aac", "audio_bit_rate": 101956, "audio_stream_index": 1, "audio_timebase": {"den": 44100, "num": 1}, "channel_layout": 4, "channels": 1, "display_ratio": {"den": 9, "num": 16}, "duration": 59.74333190917969, "file_size": "115531413", "fps": {"den": 17923, "num": 537300}, "has_audio": true, "has_single_image": false, "has_video": true, "height": 1080, "interlaced_frame": false, "metadata": {"com.apple.quicktime.creationdate": "2019-01-20T14:53:44-0500", "com.apple.quicktime.location.ISO6709": "+42.8173-073.9336+072.386/", "com.apple.quicktime.make": "Apple", "com.apple.quicktime.model": "iPhone SE", "com.apple.quicktime.software": "12.1.2", "compatible_brands": "qt", "creation_time": "2019-01-20T19:53:44.000000Z", "encoder": "H.264", "handler_name": "Core Media Data Handler", "language": "und", "major_brand": "qt", "minor_version": "0"}, "path": "C:\\ECE-218\\Projects\\Project_1\\IMG_0064.MOV", "pixel_format": 0, "pixel_ratio": {"den": 1, "num": 1}, "sample_rate": 44100, "top_field_first": true, "type": "FFmpegReader", "vcodec": "h264", "video_bit_rate": 1933795, "video_length": "1791", "video_stream_index": 0, "video_timebase": {"den": 600, "num": 1}, "width": 1920}, "rotation": {"Points": [{"co": {"X": 1.0, "Y": 0.0}, "interpolation": 2}]}, "scale": 1, "scale_x": {"Points": [{"co": {"X": 1.0, "Y": 1.0}, "interpolation": 2}]}, "scale_y": {"Points": [{"co": {"X": 1.0, "Y": 1.0}, "interpolation": 2}]}, "shear_x": {"Points": [{"co": {"X": 1.0, "Y": 0.0}, "interpolation": 2}]}, "shear_y": {"Points": [{"co": {"X": 1.0, "Y": 0.0}, "interpolation": 2}]}, "start": 0, "time": {"Points": [{"co": {"X": 1.0, "Y": 1.0}, "interpolation": 2}]}, "volume": {"Points": [{"co": {"X": 1.0, "Y": 1.0}, "interpolation": 2}]}, "wave_color": {"alpha": {"Points": [{"co": {"X": 1.0, "Y": 255.0}, "handle_left": {"X": 0.5, "Y": 1.0}, "handle_right": {"X": 0.5, "Y": 0.0}, "handle_type": 0, "interpolation": 0}]}, "blue": {"Points": [{"co": {"X": 1.0, "Y": 255.0}, "handle_left": {"X": 0.5, "Y": 1.0}, "handle_right": {"X": 0.5, "Y": 0.0}, "handle_type": 0, "interpolation": 0}]}, "green": {"Points": [{"co": {"X": 1.0, "Y": 123.0}, "handle_left": {"X": 0.5, "Y": 1.0}, "handle_right": {"X": 0.5, "Y": 0.0}, "handle_type": 0, "interpolation": 0}]}, "red": {"Points": [{"co": {"X": 1.0, "Y": 0.0}, "handle_left": {"X": 0.5, "Y": 1.0}, "handle_right": {"X": 0.5, "Y": 0.0}, "handle_type": 0, "interpolation": 0}]}}, "waveform": false, "file_id": "IHHLVRNJG1", "title": "IMG_0064.MOV", "image": "C:\\Users\\Brian Zick\\.openshot_qt\\thumbnail\\IHHLVRNJG1.png"}, "partial": false, "old_values": [{"alpha": {"Points": [{"co": {"X": 1.0, "Y": 1.0}, "interpolation": 2}]}, "anchor": 0, "channel_filter": {"Points": [{"co": {"X": 1.0, "Y": -1.0}, "interpolation": 2}]}, "channel_mapping": {"Points": [{"co": {"X": 1.0, "Y": -1.0}, "interpolation": 2}]}, "crop_height": {"Points": [{"co": {"X": 1.0, "Y": -1.0}, "interpolation": 2}]}, "crop_width": {"Points": [{"co": {"X": 1.0, "Y": -1.0}, "interpolation": 2}]}, "crop_x": {"Points": [{"co": {"X": 1.0, "Y": 0.0}, "interpolation": 2}]}, "crop_y": {"Points": [{"co": {"X": 1.0, "Y": 0.0}, "interpolation": 2}]}, "display": 0, "duration": 50.14834594726562, "effects": [], "end": 49.333333333333336, "gravity": 4, "has_audio": {"Points": [{"co": {"X": 1.0, "Y": -1.0}, "interpolation": 2}]}, "has_video": {"Points": [{"co": {"X": 1.0, "Y": -1.0}, "interpolation": 2}]}, "id": "BW0VOD89XV", "layer": 0, "location_x": {"Points": [{"co": {"X": 1.0, "Y": 0.0}, "interpolation": 2}]}, "location_y": {"Points": [{"co": {"X": 1.0, "Y": 0.0}, "interpolation": 2}]}, "mixing": 0, "perspective_c1_x": {"Points": [{"co": {"X": 1.0, "Y": -1.0}, "interpolation": 2}]}, "perspective_c1_y": {"Points": [{"co": {"X": 1.0, "Y": -1.0}, "interpolation": 2}]}, "perspective_c2_x": {"Points": [{"co": {"X": 1.0, "Y": -1.0}, "interpolation": 2}]}, "perspective_c2_y": {"Points": [{"co": {"X": 1.0, "Y": -1.0}, "interpolation": 2}]}, "perspective_c3_x": {"Points": [{"co": {"X": 1.0, "Y": -1.0}, "interpolation": 2}]}, "perspective_c3_y": {"Points": [{"co": {"X": 1.0, "Y": -1.0}, "interpolation": 2}]}, "perspective_c4_x": {"Points": [{"co": {"X": 1.0, "Y": -1.0}, "interpolation": 2}]}, "perspective_c4_y": {"Points": [{"co": {"X": 1.0, "Y": -1.0}, "interpolation": 2}]}, "position": 0, "reader": {"acodec": "aac", "audio_bit_rate": 96606, "audio_stream_index": 1, "audio_timebase": {"den": 44100, "num": 1}, "channel_layout": 4, "channels": 1, "display_ratio": {"den": 9, "num": 16}, "duration": 50.14834594726562, "file_size": "51955628", "fps": {"den": 30089, "num": 901800}, "has_audio": true, "has_single_image": false, "has_video": true, "height": 720, "interlaced_frame": false, "metadata": {"com.apple.quicktime.creationdate": "2019-01-20T14:49:53-0500", "com.apple.quicktime.location.ISO6709": "+42.8173-073.9337+077.476/", "com.apple.quicktime.make": "Apple", "com.apple.quicktime.model": "iPhone SE", "com.apple.quicktime.software": "12.1.2", "compatible_brands": "qt", "creation_time": "2019-01-20T19:49:53.000000Z", "encoder": "H.264", "handler_name": "Core Media Data Handler", "language": "und", "major_brand": "qt", "minor_version": "0"}, "path": "C:/ECE-218/Projects/Project_1/IMG_0063.MOV", "pixel_format": 0, "pixel_ratio": {"den": 1, "num": 1}, "sample_rate": 44100, "top_field_first": true, "type": "FFmpegReader", "vcodec": "h264", "video_bit_rate": 1036038, "video_length": "1503", "video_stream_index": 0, "video_timebase": {"den": 600, "num": 1}, "width": 1280}, "rotation": {"Points": [{"co": {"X": 1.0, "Y": 0.0}, "interpolation": 2}]}, "scale": 1, "scale_x": {"Points": [{"co": {"X": 1.0, "Y": 1.0}, "interpolation": 2}]}, "scale_y": {"Points": [{"co": {"X": 1.0, "Y": 1.0}, "interpolation": 2}]}, "shear_x": {"Points": [{"co": {"X": 1.0, "Y": 0.0}, "interpolation": 2}]}, "shear_y": {"Points": [{"co": {"X": 1.0, "Y": 0.0}, "interpolation": 2}]}, "start": 1.7, "time": {"Points": [{"co": {"X": 1.0, "Y": 1.0}, "interpolation": 2}]}, "volume": {"Points": [{"co": {"X": 1.0, "Y": 1.0}, "interpolation": 2}]}, "wave_color": {"alpha": {"Points": [{"co": {"X": 1.0, "Y": 255.0}, "handle_left": {"X": 0.5, "Y": 1.0}, "handle_right": {"X": 0.5, "Y": 0.0}, "handle_type": 0, "interpolation": 0}]}, "blue": {"Points": [{"co": {"X": 1.0, "Y": 255.0}, "handle_left": {"X": 0.5, "Y": 1.0}, "handle_right": {"X": 0.5, "Y": 0.0}, "handle_type": 0, "interpolation": 0}]}, "green": {"Points": [{"co": {"X": 1.0, "Y": 123.0}, "handle_left": {"X": 0.5, "Y": 1.0}, "handle_right": {"X": 0.5, "Y": 0.0}, "handle_type": 0, "interpolation": 0}]}, "red": {"Points": [{"co": {"X": 1.0, "Y": 0.0}, "handle_left": {"X": 0.5, "Y": 1.0}, "handle_right": {"X": 0.5, "Y": 0.0}, "handle_type": 0, "interpolation": 0}]}}, "waveform": false, "file_id": "EMGLE8MLVI", "title": "IMG_0063.MOV", "image": "C:\\Users\\Brian Zick\\.openshot_qt\\thumbnail\\BW0VOD89XV-52.png"}]}, {"type": "update", "key": ["clips", {"id": "QI504T8BNG"}], "value": {"id": "QI504T8BNG", "layer": 0, "position": 81.92, "image": "C:\\Users\\Brian Zick\\.openshot_qt\\thumbnail\\IHHLVRNJG1.png", "start": 0, "end": 59.74333190917969}, "partial": false, "old_values": {"alpha": {"Points": [{"co": {"X": 1.0, "Y": 1.0}, "interpolation": 2}]}, "anchor": 0, "channel_filter": {"Points": [{"co": {"X": 1.0, "Y": -1.0}, "interpolation": 2}]}, "channel_mapping": {"Points": [{"co": {"X": 1.0, "Y": -1.0}, "interpolation": 2}]}, "crop_height": {"Points": [{"co": {"X": 1.0, "Y": -1.0}, "interpolation": 2}]}, "crop_width": {"Points": [{"co": {"X": 1.0, "Y": -1.0}, "interpolation": 2}]}, "crop_x": {"Points": [{"co": {"X": 1.0, "Y": 0.0}, "interpolation": 2}]}, "crop_y": {"Points": [{"co": {"X": 1.0, "Y": 0.0}, "interpolation": 2}]}, "display": 0, "duration": 59.74333190917969, "effects": [], "end": 59.74333190917969, "gravity": 4, "has_audio": {"Points": [{"co": {"X": 1.0, "Y": -1.0}, "interpolation": 2}]}, "has_video": {"Points": [{"co": {"X": 1.0, "Y": -1.0}, "interpolation": 2}]}, "id": "QI504T8BNG", "layer": 4, "location_x": {"Points": [{"co": {"X": 1.0, "Y": 0.0}, "interpolation": 2}]}, "location_y": {"Points": [{"co": {"X": 1.0, "Y": 0.0}, "interpolation": 2}]}, "mixing": 0, "perspective_c1_x": {"Points": [{"co": {"X": 1.0, "Y": -1.0}, "interpolation": 2}]}, "perspective_c1_y": {"Points": [{"co": {"X": 1.0, "Y": -1.0}, "interpolation": 2}]}, "perspective_c2_x": {"Points": [{"co": {"X": 1.0, "Y": -1.0}, "interpolation": 2}]}, "perspective_c2_y": {"Points": [{"co": {"X": 1.0, "Y": -1.0}, "interpolation": 2}]}, "perspective_c3_x": {"Points": [{"co": {"X": 1.0, "Y": -1.0}, "interpolation": 2}]}, "perspective_c3_y": {"Points": [{"co": {"X": 1.0, "Y": -1.0}, "interpolation": 2}]}, "perspective_c4_x": {"Points": [{"co": {"X": 1.0, "Y": -1.0}, "interpolation": 2}]}, "perspective_c4_y": {"Points": [{"co": {"X": 1.0, "Y": -1.0}, "interpolation": 2}]}, "position": 57.44, "reader": {"acodec": "aac", "audio_bit_rate": 101956, "audio_stream_index": 1, "audio_timebase": {"den": 44100, "num": 1}, "channel_layout": 4, "channels": 1, "display_ratio": {"den": 9, "num": 16}, "duration": 59.74333190917969, "file_size": "115531413", "fps": {"den": 17923, "num": 537300}, "has_audio": true, "has_single_image": false, "has_video": true, "height": 1080, "interlaced_frame": false, "metadata": {"com.apple.quicktime.creationdate": "2019-01-20T14:53:44-0500", "com.apple.quicktime.location.ISO6709": "+42.8173-073.9336+072.386/", "com.apple.quicktime.make": "Apple", "com.apple.quicktime.model": "iPhone SE", "com.apple.quicktime.software": "12.1.2", "compatible_brands": "qt", "creation_time": "2019-01-20T19:53:44.000000Z", "encoder": "H.264", "handler_name": "Core Media Data Handler", "language": "und", "major_brand": "qt", "minor_version": "0"}, "path": "C:/ECE-218/Projects/Project_1/IMG_0064.MOV", "pixel_format": 0, "pixel_ratio": {"den": 1, "num": 1}, "sample_rate": 44100, "top_field_first": true, "type": "FFmpegReader", "vcodec": "h264", "video_bit_rate": 1933795, "video_length": "1791", "video_stream_index": 0, "video_timebase": {"den": 600, "num": 1}, "width": 1920}, "rotation": {"Points": [{"co": {"X": 1.0, "Y": 0.0}, "interpolation": 2}]}, "scale": 1, "scale_x": {"Points": [{"co": {"X": 1.0, "Y": 1.0}, "interpolation": 2}]}, "scale_y": {"Points": [{"co": {"X": 1.0, "Y": 1.0}, "interpolation": 2}]}, "shear_x": {"Points": [{"co": {"X": 1.0, "Y": 0.0}, "interpolation": 2}]}, "shear_y": {"Points": [{"co": {"X": 1.0, "Y": 0.0}, "interpolation": 2}]}, "start": 0.0, "time": {"Points": [{"co": {"X": 1.0, "Y": 1.0}, "interpolation": 2}]}, "volume": {"Points": [{"co": {"X": 1.0, "Y": 1.0}, "interpolation": 2}]}, "wave_color": {"alpha": {"Points": [{"co": {"X": 1.0, "Y": 255.0}, "handle_left": {"X": 0.5, "Y": 1.0}, "handle_right": {"X": 0.5, "Y": 0.0}, "handle_type": 0, "interpolation": 0}]}, "blue": {"Points": [{"co": {"X": 1.0, "Y": 255.0}, "handle_left": {"X": 0.5, "Y": 1.0}, "handle_right": {"X": 0.5, "Y": 0.0}, "handle_type": 0, "interpolation": 0}]}, "green": {"Points": [{"co": {"X": 1.0, "Y": 123.0}, "handle_left": {"X": 0.5, "Y": 1.0}, "handle_right": {"X": 0.5, "Y": 0.0}, "handle_type": 0, "interpolation": 0}]}, "red": {"Points": [{"co": {"X": 1.0, "Y": 0.0}, "handle_left": {"X": 0.5, "Y": 1.0}, "handle_right": {"X": 0.5, "Y": 0.0}, "handle_type": 0, "interpolation": 0}]}}, "waveform": false, "file_id": "IHHLVRNJG1", "title": "IMG_0064.MOV", "image": "C:\\Users\\Brian Zick\\.openshot_qt\\thumbnail\\IHHLVRNJG1.png"}}, {"type": "update", "key": ["clips", {"id": "QI504T8BNG"}], "value": {"id": "QI504T8BNG", "layer": 0, "position": 47.63333333333333, "image": "C:\\Users\\Brian Zick\\.openshot_qt\\thumbnail\\IHHLVRNJG1.png", "start": 0, "end": 59.74333190917969}, "partial": false, "old_values": {"alpha": {"Points": [{"co": {"X": 1.0, "Y": 1.0}, "interpolation": 2}]}, "anchor": 0, "channel_filter": {"Points": [{"co": {"X": 1.0, "Y": -1.0}, "interpolation": 2}]}, "channel_mapping": {"Points": [{"co": {"X": 1.0, "Y": -1.0}, "interpolation": 2}]}, "crop_height": {"Points": [{"co": {"X": 1.0, "Y": -1.0}, "interpolation": 2}]}, "crop_width": {"Points": [{"co": {"X": 1.0, "Y": -1.0}, "interpolation": 2}]}, "crop_x": {"Points": [{"co": {"X": 1.0, "Y": 0.0}, "interpolation": 2}]}, "crop_y": {"Points": [{"co": {"X": 1.0, "Y": 0.0}, "interpolation": 2}]}, "display": 0, "duration": 59.74333190917969, "effects": [], "end": 59.74333190917969, "gravity": 4, "has_audio": {"Points": [{"co": {"X": 1.0, "Y": -1.0}, "interpolation": 2}]}, "has_video": {"Points": [{"co": {"X": 1.0, "Y": -1.0}, "interpolation": 2}]}, "id": "QI504T8BNG", "layer": 0, "location_x": {"Points": [{"co": {"X": 1.0, "Y": 0.0}, "interpolation": 2}]}, "location_y": {"Points": [{"co": {"X": 1.0, "Y": 0.0}, "interpolation": 2}]}, "mixing": 0, "perspective_c1_x": {"Points": [{"co": {"X": 1.0, "Y": -1.0}, "interpolation": 2}]}, "perspective_c1_y": {"Points": [{"co": {"X": 1.0, "Y": -1.0}, "interpolation": 2}]}, "perspective_c2_x": {"Points": [{"co": {"X": 1.0, "Y": -1.0}, "interpolation": 2}]}, "perspective_c2_y": {"Points": [{"co": {"X": 1.0, "Y": -1.0}, "interpolation": 2}]}, "perspective_c3_x": {"Points": [{"co": {"X": 1.0, "Y": -1.0}, "interpolation": 2}]}, "perspective_c3_y": {"Points": [{"co": {"X": 1.0, "Y": -1.0}, "interpolation": 2}]}, "perspective_c4_x": {"Points": [{"co": {"X": 1.0, "Y": -1.0}, "interpolation": 2}]}, "perspective_c4_y": {"Points": [{"co": {"X": 1.0, "Y": -1.0}, "interpolation": 2}]}, "position": 81.92, "reader": {"acodec": "aac", "audio_bit_rate": 101956, "audio_stream_index": 1, "audio_timebase": {"den": 44100, "num": 1}, "channel_layout": 4, "channels": 1, "display_ratio": {"den": 9, "num": 16}, "duration": 59.74333190917969, "file_size": "115531413", "fps": {"den": 17923, "num": 537300}, "has_audio": true, "has_single_image": false, "has_video": true, "height": 1080, "interlaced_frame": false, "metadata": {"com.apple.quicktime.creationdate": "2019-01-20T14:53:44-0500", "com.apple.quicktime.location.ISO6709": "+42.8173-073.9336+072.386/", "com.apple.quicktime.make": "Apple", "com.apple.quicktime.model": "iPhone SE", "com.apple.quicktime.software": "12.1.2", "compatible_brands": "qt", "creation_time": "2019-01-20T19:53:44.000000Z", "encoder": "H.264", "handler_name": "Core Media Data Handler", "language": "und", "major_brand": "qt", "minor_version": "0"}, "path": "C:/ECE-218/Projects/Project_1/IMG_0064.MOV", "pixel_format": 0, "pixel_ratio": {"den": 1, "num": 1}, "sample_rate": 44100, "top_field_first": true, "type": "FFmpegReader", "vcodec": "h264", "video_bit_rate": 1933795, "video_length": "1791", "video_stream_index": 0, "video_timebase": {"den": 600, "num": 1}, "width": 1920}, "rotation": {"Points": [{"co": {"X": 1.0, "Y": 0.0}, "interpolation": 2}]}, "scale": 1, "scale_x": {"Points": [{"co": {"X": 1.0, "Y": 1.0}, "interpolation": 2}]}, "scale_y": {"Points": [{"co": {"X": 1.0, "Y": 1.0}, "interpolation": 2}]}, "shear_x": {"Points": [{"co": {"X": 1.0, "Y": 0.0}, "interpolation": 2}]}, "shear_y": {"Points": [{"co": {"X": 1.0, "Y": 0.0}, "interpolation": 2}]}, "start": 0, "time": {"Points": [{"co": {"X": 1.0, "Y": 1.0}, "interpolation": 2}]}, "volume": {"Points": [{"co": {"X": 1.0, "Y": 1.0}, "interpolation": 2}]}, "wave_color": {"alpha": {"Points": [{"co": {"X": 1.0, "Y": 255.0}, "handle_left": {"X": 0.5, "Y": 1.0}, "handle_right": {"X": 0.5, "Y": 0.0}, "handle_type": 0, "interpolation": 0}]}, "blue": {"Points": [{"co": {"X": 1.0, "Y": 255.0}, "handle_left": {"X": 0.5, "Y": 1.0}, "handle_right": {"X": 0.5, "Y": 0.0}, "handle_type": 0, "interpolation": 0}]}, "green": {"Points": [{"co": {"X": 1.0, "Y": 123.0}, "handle_left": {"X": 0.5, "Y": 1.0}, "handle_right": {"X": 0.5, "Y": 0.0}, "handle_type": 0, "interpolation": 0}]}, "red": {"Points": [{"co": {"X": 1.0, "Y": 0.0}, "handle_left": {"X": 0.5, "Y": 1.0}, "handle_right": {"X": 0.5, "Y": 0.0}, "handle_type": 0, "interpolation": 0}]}}, "waveform": false, "file_id": "IHHLVRNJG1", "title": "IMG_0064.MOV", "image": "C:\\Users\\Brian Zick\\.openshot_qt\\thumbnail\\IHHLVRNJG1.png"}}, {"type": "insert", "key": ["clips"], "value": {"alpha": {"Points": [{"co": {"X": 1.0, "Y": 1.0}, "interpolation": 2}]}, "anchor": 0, "channel_filter": {"Points": [{"co": {"X": 1.0, "Y": -1.0}, "interpolation": 2}]}, "channel_mapping": {"Points": [{"co": {"X": 1.0, "Y": -1.0}, "interpolation": 2}]}, "crop_height": {"Points": [{"co": {"X": 1.0, "Y": -1.0}, "interpolation": 2}]}, "crop_width": {"Points": [{"co": {"X": 1.0, "Y": -1.0}, "interpolation": 2}]}, "crop_x": {"Points": [{"co": {"X": 1.0, "Y": 0.0}, "interpolation": 2}]}, "crop_y": {"Points": [{"co": {"X": 1.0, "Y": 0.0}, "interpolation": 2}]}, "display": 0, "duration": 47.96834564208984, "effects": [], "end": 46.93333333333334, "gravity": 4, "has_audio": {"Points": [{"co": {"X": 1.0, "Y": -1.0}, "interpolation": 2}]}, "has_video": {"Points": [{"co": {"X": 1.0, "Y": -1.0}, "interpolation": 2}]}, "id": "VW73LROR7B", "layer": 0, "location_x": {"Points": [{"co": {"X": 1.0, "Y": 0.0}, "interpolation": 2}]}, "location_y": {"Points": [{"co": {"X": 1.0, "Y": 0.0}, "interpolation": 2}]}, "mixing": 0, "perspective_c1_x": {"Points": [{"co": {"X": 1.0, "Y": -1.0}, "interpolation": 2}]}, "perspective_c1_y": {"Points": [{"co": {"X": 1.0, "Y": -1.0}, "interpolation": 2}]}, "perspective_c2_x": {"Points": [{"co": {"X": 1.0, "Y": -1.0}, "interpolation": 2}]}, "perspective_c2_y": {"Points": [{"co": {"X": 1.0, "Y": -1.0}, "interpolation": 2}]}, "perspective_c3_x": {"Points": [{"co": {"X": 1.0, "Y": -1.0}, "interpolation": 2}]}, "perspective_c3_y": {"Points": [{"co": {"X": 1.0, "Y": -1.0}, "interpolation": 2}]}, "perspective_c4_x": {"Points": [{"co": {"X": 1.0, "Y": -1.0}, "interpolation": 2}]}, "perspective_c4_y": {"Points": [{"co": {"X": 1.0, "Y": -1.0}, "interpolation": 2}]}, "position": 107.36666666666666, "reader": {"acodec": "aac", "audio_bit_rate": 100734, "audio_stream_index": 1, "audio_timebase": {"den": 44100, "num": 1}, "channel_layout": 4, "channels": 1, "display_ratio": {"den": 9, "num": 16}, "duration": 47.96834564208984, "file_size": "93194432", "fps": {"den": 28781, "num": 862800}, "has_audio": true, "has_single_image": false, "has_video": true, "height": 1080, "interlaced_frame": false, "metadata": {"com.apple.quicktime.creationdate": "2019-01-20T14:58:37-0500", "com.apple.quicktime.location.ISO6709": "+42.8173-073.9336+075.832/", "com.apple.quicktime.make": "Apple", "com.apple.quicktime.model": "iPhone SE", "com.apple.quicktime.software": "12.1.2", "compatible_brands": "qt", "creation_time": "2019-01-20T19:58:37.000000Z", "encoder": "H.264", "handler_name": "Core Media Data Handler", "language": "und", "major_brand": "qt", "minor_version": "0"}, "path": "C:\\ECE-218\\Projects\\Project_1\\IMG_0065.MOV", "pixel_format": 0, "pixel_ratio": {"den": 1, "num": 1}, "sample_rate": 44100, "top_field_first": true, "type": "FFmpegReader", "vcodec": "h264", "video_bit_rate": 1942832, "video_length": "1438", "video_stream_index": 0, "video_timebase": {"den": 600, "num": 1}, "width": 1920}, "rotation": {"Points": [{"co": {"X": 1.0, "Y": 0.0}, "interpolation": 2}]}, "scale": 1, "scale_x": {"Points": [{"co": {"X": 1.0, "Y": 1.0}, "interpolation": 2}]}, "scale_y": {"Points": [{"co": {"X": 1.0, "Y": 1.0}, "interpolation": 2}]}, "shear_x": {"Points": [{"co": {"X": 1.0, "Y": 0.0}, "interpolation": 2}]}, "shear_y": {"Points": [{"co": {"X": 1.0, "Y": 0.0}, "interpolation": 2}]}, "start": 5.066666666666677, "time": {"Points": [{"co": {"X": 1.0, "Y": 1.0}, "interpolation": 2}]}, "volume": {"Points": [{"co": {"X": 1.0, "Y": 1.0}, "interpolation": 2}]}, "wave_color": {"alpha": {"Points": [{"co": {"X": 1.0, "Y": 255.0}, "handle_left": {"X": 0.5, "Y": 1.0}, "handle_right": {"X": 0.5, "Y": 0.0}, "handle_type": 0, "interpolation": 0}]}, "blue": {"Points": [{"co": {"X": 1.0, "Y": 255.0}, "handle_left": {"X": 0.5, "Y": 1.0}, "handle_right": {"X": 0.5, "Y": 0.0}, "handle_type": 0, "interpolation": 0}]}, "green": {"Points": [{"co": {"X": 1.0, "Y": 123.0}, "handle_left": {"X": 0.5, "Y": 1.0}, "handle_right": {"X": 0.5, "Y": 0.0}, "handle_type": 0, "interpolation": 0}]}, "red": {"Points": [{"co": {"X": 1.0, "Y": 0.0}, "handle_left": {"X": 0.5, "Y": 1.0}, "handle_right": {"X": 0.5, "Y": 0.0}, "handle_type": 0, "interpolation": 0}]}}, "waveform": false, "file_id": "651U5IA9TQ", "title": "IMG_0065.MOV", "image": "C:\\Users\\Brian Zick\\.openshot_qt\\thumbnail\\VW73LROR7B-153.png"}, "partial": false, "old_values": [{"alpha": {"Points": [{"co": {"X": 1.0, "Y": 1.0}, "interpolation": 2}]}, "anchor": 0, "channel_filter": {"Points": [{"co": {"X": 1.0, "Y": -1.0}, "interpolation": 2}]}, "channel_mapping": {"Points": [{"co": {"X": 1.0, "Y": -1.0}, "interpolation": 2}]}, "crop_height": {"Points": [{"co": {"X": 1.0, "Y": -1.0}, "interpolation": 2}]}, "crop_width": {"Points": [{"co": {"X": 1.0, "Y": -1.0}, "interpolation": 2}]}, "crop_x": {"Points": [{"co": {"X": 1.0, "Y": 0.0}, "interpolation": 2}]}, "crop_y": {"Points": [{"co": {"X": 1.0, "Y": 0.0}, "interpolation": 2}]}, "display": 0, "duration": 50.14834594726562, "effects": [], "end": 49.333333333333336, "gravity": 4, "has_audio": {"Points": [{"co": {"X": 1.0, "Y": -1.0}, "interpolation": 2}]}, "has_video": {"Points": [{"co": {"X": 1.0, "Y": -1.0}, "interpolation": 2}]}, "id": "BW0VOD89XV", "layer": 0, "location_x": {"Points": [{"co": {"X": 1.0, "Y": 0.0}, "interpolation": 2}]}, "location_y": {"Points": [{"co": {"X": 1.0, "Y": 0.0}, "interpolation": 2}]}, "mixing": 0, "perspective_c1_x": {"Points": [{"co": {"X": 1.0, "Y": -1.0}, "interpolation": 2}]}, "perspective_c1_y": {"Points": [{"co": {"X": 1.0, "Y": -1.0}, "interpolation": 2}]}, "perspective_c2_x": {"Points": [{"co": {"X": 1.0, "Y": -1.0}, "interpolation": 2}]}, "perspective_c2_y": {"Points": [{"co": {"X": 1.0, "Y": -1.0}, "interpolation": 2}]}, "perspective_c3_x": {"Points": [{"co": {"X": 1.0, "Y": -1.0}, "interpolation": 2}]}, "perspective_c3_y": {"Points": [{"co": {"X": 1.0, "Y": -1.0}, "interpolation": 2}]}, "perspective_c4_x": {"Points": [{"co": {"X": 1.0, "Y": -1.0}, "interpolation": 2}]}, "perspective_c4_y": {"Points": [{"co": {"X": 1.0, "Y": -1.0}, "interpolation": 2}]}, "position": 0, "reader": {"acodec": "aac", "audio_bit_rate": 96606, "audio_stream_index": 1, "audio_timebase": {"den": 44100, "num": 1}, "channel_layout": 4, "channels": 1, "display_ratio": {"den": 9, "num": 16}, "duration": 50.14834594726562, "file_size": "51955628", "fps": {"den": 30089, "num": 901800}, "has_audio": true, "has_single_image": false, "has_video": true, "height": 720, "interlaced_frame": false, "metadata": {"com.apple.quicktime.creationdate": "2019-01-20T14:49:53-0500", "com.apple.quicktime.location.ISO6709": "+42.8173-073.9337+077.476/", "com.apple.quicktime.make": "Apple", "com.apple.quicktime.model": "iPhone SE", "com.apple.quicktime.software": "12.1.2", "compatible_brands": "qt", "creation_time": "2019-01-20T19:49:53.000000Z", "encoder": "H.264", "handler_name": "Core Media Data Handler", "language": "und", "major_brand": "qt", "minor_version": "0"}, "path": "C:/ECE-218/Projects/Project_1/IMG_0063.MOV", "pixel_format": 0, "pixel_ratio": {"den": 1, "num": 1}, "sample_rate": 44100, "top_field_first": true, "type": "FFmpegReader", "vcodec": "h264", "video_bit_rate": 1036038, "video_length": "1503", "video_stream_index": 0, "video_timebase": {"den": 600, "num": 1}, "width": 1280}, "rotation": {"Points": [{"co": {"X": 1.0, "Y": 0.0}, "interpolation": 2}]}, "scale": 1, "scale_x": {"Points": [{"co": {"X": 1.0, "Y": 1.0}, "interpolation": 2}]}, "scale_y": {"Points": [{"co": {"X": 1.0, "Y": 1.0}, "interpolation": 2}]}, "shear_x": {"Points": [{"co": {"X": 1.0, "Y": 0.0}, "interpolation": 2}]}, "shear_y": {"Points": [{"co": {"X": 1.0, "Y": 0.0}, "interpolation": 2}]}, "start": 1.7, "time": {"Points": [{"co": {"X": 1.0, "Y": 1.0}, "interpolation": 2}]}, "volume": {"Points": [{"co": {"X": 1.0, "Y": 1.0}, "interpolation": 2}]}, "wave_color": {"alpha": {"Points": [{"co": {"X": 1.0, "Y": 255.0}, "handle_left": {"X": 0.5, "Y": 1.0}, "handle_right": {"X": 0.5, "Y": 0.0}, "handle_type": 0, "interpolation": 0}]}, "blue": {"Points": [{"co": {"X": 1.0, "Y": 255.0}, "handle_left": {"X": 0.5, "Y": 1.0}, "handle_right": {"X": 0.5, "Y": 0.0}, "handle_type": 0, "interpolation": 0}]}, "green": {"Points": [{"co": {"X": 1.0, "Y": 123.0}, "handle_left": {"X": 0.5, "Y": 1.0}, "handle_right": {"X": 0.5, "Y": 0.0}, "handle_type": 0, "interpolation": 0}]}, "red": {"Points": [{"co": {"X": 1.0, "Y": 0.0}, "handle_left": {"X": 0.5, "Y": 1.0}, "handle_right": {"X": 0.5, "Y": 0.0}, "handle_type": 0, "interpolation": 0}]}}, "waveform": false, "file_id": "EMGLE8MLVI", "title": "IMG_0063.MOV", "image": "C:\\Users\\Brian Zick\\.openshot_qt\\thumbnail\\BW0VOD89XV-52.png"}, {"alpha": {"Points": [{"co": {"X": 1.0, "Y": 1.0}, "interpolation": 2}]}, "anchor": 0, "channel_filter": {"Points": [{"co": {"X": 1.0, "Y": -1.0}, "interpolation": 2}]}, "channel_mapping": {"Points": [{"co": {"X": 1.0, "Y": -1.0}, "interpolation": 2}]}, "crop_height": {"Points": [{"co": {"X": 1.0, "Y": -1.0}, "interpolation": 2}]}, "crop_width": {"Points": [{"co": {"X": 1.0, "Y": -1.0}, "interpolation": 2}]}, "crop_x": {"Points": [{"co": {"X": 1.0, "Y": 0.0}, "interpolation": 2}]}, "crop_y": {"Points": [{"co": {"X": 1.0, "Y": 0.0}, "interpolation": 2}]}, "display": 0, "duration": 59.74333190917969, "effects": [], "end": 59.74333190917969, "gravity": 4, "has_audio": {"Points": [{"co": {"X": 1.0, "Y": -1.0}, "interpolation": 2}]}, "has_video": {"Points": [{"co": {"X": 1.0, "Y": -1.0}, "interpolation": 2}]}, "id": "QI504T8BNG", "layer": 0, "location_x": {"Points": [{"co": {"X": 1.0, "Y": 0.0}, "interpolation": 2}]}, "location_y": {"Points": [{"co": {"X": 1.0, "Y": 0.0}, "interpolation": 2}]}, "mixing": 0, "perspective_c1_x": {"Points": [{"co": {"X": 1.0, "Y": -1.0}, "interpolation": 2}]}, "perspective_c1_y": {"Points": [{"co": {"X": 1.0, "Y": -1.0}, "interpolation": 2}]}, "perspective_c2_x": {"Points": [{"co": {"X": 1.0, "Y": -1.0}, "interpolation": 2}]}, "perspective_c2_y": {"Points": [{"co": {"X": 1.0, "Y": -1.0}, "interpolation": 2}]}, "perspective_c3_x": {"Points": [{"co": {"X": 1.0, "Y": -1.0}, "interpolation": 2}]}, "perspective_c3_y": {"Points": [{"co": {"X": 1.0, "Y": -1.0}, "interpolation": 2}]}, "perspective_c4_x": {"Points": [{"co": {"X": 1.0, "Y": -1.0}, "interpolation": 2}]}, "perspective_c4_y": {"Points": [{"co": {"X": 1.0, "Y": -1.0}, "interpolation": 2}]}, "position": 47.63333333333333, "reader": {"acodec": "aac", "audio_bit_rate": 101956, "audio_stream_index": 1, "audio_timebase": {"den": 44100, "num": 1}, "channel_layout": 4, "channels": 1, "display_ratio": {"den": 9, "num": 16}, "duration": 59.74333190917969, "file_size": "115531413", "fps": {"den": 17923, "num": 537300}, "has_audio": true, "has_single_image": false, "has_video": true, "height": 1080, "interlaced_frame": false, "metadata": {"com.apple.quicktime.creationdate": "2019-01-20T14:53:44-0500", "com.apple.quicktime.location.ISO6709": "+42.8173-073.9336+072.386/", "com.apple.quicktime.make": "Apple", "com.apple.quicktime.model": "iPhone SE", "com.apple.quicktime.software": "12.1.2", "compatible_brands": "qt", "creation_time": "2019-01-20T19:53:44.000000Z", "encoder": "H.264", "handler_name": "Core Media Data Handler", "language": "und", "major_brand": "qt", "minor_version": "0"}, "path": "C:/ECE-218/Projects/Project_1/IMG_0064.MOV", "pixel_format": 0, "pixel_ratio": {"den": 1, "num": 1}, "sample_rate": 44100, "top_field_first": true, "type": "FFmpegReader", "vcodec": "h264", "video_bit_rate": 1933795, "video_length": "1791", "video_stream_index": 0, "video_timebase": {"den": 600, "num": 1}, "width": 1920}, "rotation": {"Points": [{"co": {"X": 1.0, "Y": 0.0}, "interpolation": 2}]}, "scale": 1, "scale_x": {"Points": [{"co": {"X": 1.0, "Y": 1.0}, "interpolation": 2}]}, "scale_y": {"Points": [{"co": {"X": 1.0, "Y": 1.0}, "interpolation": 2}]}, "shear_x": {"Points": [{"co": {"X": 1.0, "Y": 0.0}, "interpolation": 2}]}, "shear_y": {"Points": [{"co": {"X": 1.0, "Y": 0.0}, "interpolation": 2}]}, "start": 0, "time": {"Points": [{"co": {"X": 1.0, "Y": 1.0}, "interpolation": 2}]}, "volume": {"Points": [{"co": {"X": 1.0, "Y": 1.0}, "interpolation": 2}]}, "wave_color": {"alpha": {"Points": [{"co": {"X": 1.0, "Y": 255.0}, "handle_left": {"X": 0.5, "Y": 1.0}, "handle_right": {"X": 0.5, "Y": 0.0}, "handle_type": 0, "interpolation": 0}]}, "blue": {"Points": [{"co": {"X": 1.0, "Y": 255.0}, "handle_left": {"X": 0.5, "Y": 1.0}, "handle_right": {"X": 0.5, "Y": 0.0}, "handle_type": 0, "interpolation": 0}]}, "green": {"Points": [{"co": {"X": 1.0, "Y": 123.0}, "handle_left": {"X": 0.5, "Y": 1.0}, "handle_right": {"X": 0.5, "Y": 0.0}, "handle_type": 0, "interpolation": 0}]}, "red": {"Points": [{"co": {"X": 1.0, "Y": 0.0}, "handle_left": {"X": 0.5, "Y": 1.0}, "handle_right": {"X": 0.5, "Y": 0.0}, "handle_type": 0, "interpolation": 0}]}}, "waveform": false, "file_id": "IHHLVRNJG1", "title": "IMG_0064.MOV", "image": "C:\\Users\\Brian Zick\\.openshot_qt\\thumbnail\\IHHLVRNJG1.png"}]}, {"type": "update", "key": ["clips", {"id": "VW73LROR7B"}], "value": {"id": "VW73LROR7B", "layer": 0, "position": 107.36666666666666, "image": "C:\\Users\\Brian Zick\\.openshot_qt\\thumbnail\\651U5IA9TQ.png", "start": 0, "end": 47.96834564208984}, "partial": false, "old_values": {"alpha": {"Points": [{"co": {"X": 1.0, "Y": 1.0}, "interpolation": 2}]}, "anchor": 0, "channel_filter": {"Points": [{"co": {"X": 1.0, "Y": -1.0}, "interpolation": 2}]}, "channel_mapping": {"Points": [{"co": {"X": 1.0, "Y": -1.0}, "interpolation": 2}]}, "crop_height": {"Points": [{"co": {"X": 1.0, "Y": -1.0}, "interpolation": 2}]}, "crop_width": {"Points": [{"co": {"X": 1.0, "Y": -1.0}, "interpolation": 2}]}, "crop_x": {"Points": [{"co": {"X": 1.0, "Y": 0.0}, "interpolation": 2}]}, "crop_y": {"Points": [{"co": {"X": 1.0, "Y": 0.0}, "interpolation": 2}]}, "display": 0, "duration": 47.96834564208984, "effects": [], "end": 47.96834564208984, "gravity": 4, "has_audio": {"Points": [{"co": {"X": 1.0, "Y": -1.0}, "interpolation": 2}]}, "has_video": {"Points": [{"co": {"X": 1.0, "Y": -1.0}, "interpolation": 2}]}, "id": "VW73LROR7B", "layer": 4, "location_x": {"Points": [{"co": {"X": 1.0, "Y": 0.0}, "interpolation": 2}]}, "location_y": {"Points": [{"co": {"X": 1.0, "Y": 0.0}, "interpolation": 2}]}, "mixing": 0, "perspective_c1_x": {"Points": [{"co": {"X": 1.0, "Y": -1.0}, "interpolation": 2}]}, "perspective_c1_y": {"Points": [{"co": {"X": 1.0, "Y": -1.0}, "interpolation": 2}]}, "perspective_c2_x": {"Points": [{"co": {"X": 1.0, "Y": -1.0}, "interpolation": 2}]}, "perspective_c2_y": {"Points": [{"co": {"X": 1.0, "Y": -1.0}, "interpolation": 2}]}, "perspective_c3_x": {"Points": [{"co": {"X": 1.0, "Y": -1.0}, "interpolation": 2}]}, "perspective_c3_y": {"Points": [{"co": {"X": 1.0, "Y": -1.0}, "interpolation": 2}]}, "perspective_c4_x": {"Points": [{"co": {"X": 1.0, "Y": -1.0}, "interpolation": 2}]}, "perspective_c4_y": {"Points": [{"co": {"X": 1.0, "Y": -1.0}, "interpolation": 2}]}, "position": 94.88, "reader": {"acodec": "aac", "audio_bit_rate": 100734, "audio_stream_index": 1, "audio_timebase": {"den": 44100, "num": 1}, "channel_layout": 4, "channels": 1, "display_ratio": {"den": 9, "num": 16}, "duration": 47.96834564208984, "file_size": "93194432", "fps": {"den": 28781, "num": 862800}, "has_audio": true, "has_single_image": false, "has_video": true, "height": 1080, "interlaced_frame": false, "metadata": {"com.apple.quicktime.creationdate": "2019-01-20T14:58:37-0500", "com.apple.quicktime.location.ISO6709": "+42.8173-073.9336+075.832/", "com.apple.quicktime.make": "Apple", "com.apple.quicktime.model": "iPhone SE", "com.apple.quicktime.software": "12.1.2", "compatible_brands": "qt", "creation_time": "2019-01-20T19:58:37.000000Z", "encoder": "H.264", "handler_name": "Core Media Data Handler", "language": "und", "major_brand": "qt", "minor_version": "0"}, "path": "C:/ECE-218/Projects/Project_1/IMG_0065.MOV", "pixel_format": 0, "pixel_ratio": {"den": 1, "num": 1}, "sample_rate": 44100, "top_field_first": true, "type": "FFmpegReader", "vcodec": "h264", "video_bit_rate": 1942832, "video_length": "1438", "video_stream_index": 0, "video_timebase": {"den": 600, "num": 1}, "width": 1920}, "rotation": {"Points": [{"co": {"X": 1.0, "Y": 0.0}, "interpolation": 2}]}, "scale": 1, "scale_x": {"Points": [{"co": {"X": 1.0, "Y": 1.0}, "interpolation": 2}]}, "scale_y": {"Points": [{"co": {"X": 1.0, "Y": 1.0}, "interpolation": 2}]}, "shear_x": {"Points": [{"co": {"X": 1.0, "Y": 0.0}, "interpolation": 2}]}, "shear_y": {"Points": [{"co": {"X": 1.0, "Y": 0.0}, "interpolation": 2}]}, "start": 0.0, "time": {"Points": [{"co": {"X": 1.0, "Y": 1.0}, "interpolation": 2}]}, "volume": {"Points": [{"co": {"X": 1.0, "Y": 1.0}, "interpolation": 2}]}, "wave_color": {"alpha": {"Points": [{"co": {"X": 1.0, "Y": 255.0}, "handle_left": {"X": 0.5, "Y": 1.0}, "handle_right": {"X": 0.5, "Y": 0.0}, "handle_type": 0, "interpolation": 0}]}, "blue": {"Points": [{"co": {"X": 1.0, "Y": 255.0}, "handle_left": {"X": 0.5, "Y": 1.0}, "handle_right": {"X": 0.5, "Y": 0.0}, "handle_type": 0, "interpolation": 0}]}, "green": {"Points": [{"co": {"X": 1.0, "Y": 123.0}, "handle_left": {"X": 0.5, "Y": 1.0}, "handle_right": {"X": 0.5, "Y": 0.0}, "handle_type": 0, "interpolation": 0}]}, "red": {"Points": [{"co": {"X": 1.0, "Y": 0.0}, "handle_left": {"X": 0.5, "Y": 1.0}, "handle_right": {"X": 0.5, "Y": 0.0}, "handle_type": 0, "interpolation": 0}]}}, "waveform": false, "file_id": "651U5IA9TQ", "title": "IMG_0065.MOV", "image": "C:\\Users\\Brian Zick\\.openshot_qt\\thumbnail\\651U5IA9TQ.png"}}, {"type": "update", "key": ["clips", {"id": "VW73LROR7B"}], "value": {"alpha": {"Points": [{"co": {"X": 1.0, "Y": 1.0}, "interpolation": 2}]}, "anchor": 0, "channel_filter": {"Points": [{"co": {"X": 1.0, "Y": -1.0}, "interpolation": 2}]}, "channel_mapping": {"Points": [{"co": {"X": 1.0, "Y": -1.0}, "interpolation": 2}]}, "crop_height": {"Points": [{"co": {"X": 1.0, "Y": -1.0}, "interpolation": 2}]}, "crop_width": {"Points": [{"co": {"X": 1.0, "Y": -1.0}, "interpolation": 2}]}, "crop_x": {"Points": [{"co": {"X": 1.0, "Y": 0.0}, "interpolation": 2}]}, "crop_y": {"Points": [{"co": {"X": 1.0, "Y": 0.0}, "interpolation": 2}]}, "display": 0, "duration": 47.96834564208984, "effects": [], "end": 47.96834564208984, "gravity": 4, "has_audio": {"Points": [{"co": {"X": 1.0, "Y": -1.0}, "interpolation": 2}]}, "has_video": {"Points": [{"co": {"X": 1.0, "Y": -1.0}, "interpolation": 2}]}, "id": "VW73LROR7B", "layer": 0, "location_x": {"Points": [{"co": {"X": 1.0, "Y": 0.0}, "interpolation": 2}]}, "location_y": {"Points": [{"co": {"X": 1.0, "Y": 0.0}, "interpolation": 2}]}, "mixing": 0, "perspective_c1_x": {"Points": [{"co": {"X": 1.0, "Y": -1.0}, "interpolation": 2}]}, "perspective_c1_y": {"Points": [{"co": {"X": 1.0, "Y": -1.0}, "interpolation": 2}]}, "perspective_c2_x": {"Points": [{"co": {"X": 1.0, "Y": -1.0}, "interpolation": 2}]}, "perspective_c2_y": {"Points": [{"co": {"X": 1.0, "Y": -1.0}, "interpolation": 2}]}, "perspective_c3_x": {"Points": [{"co": {"X": 1.0, "Y": -1.0}, "interpolation": 2}]}, "perspective_c3_y": {"Points": [{"co": {"X": 1.0, "Y": -1.0}, "interpolation": 2}]}, "perspective_c4_x": {"Points": [{"co": {"X": 1.0, "Y": -1.0}, "interpolation": 2}]}, "perspective_c4_y": {"Points": [{"co": {"X": 1.0, "Y": -1.0}, "interpolation": 2}]}, "position": 112.43333333333334, "rotation": {"Points": [{"co": {"X": 1.0, "Y": 0.0}, "interpolation": 2}]}, "scale": 1, "scale_x": {"Points": [{"co": {"X": 1.0, "Y": 1.0}, "interpolation": 2}]}, "scale_y": {"Points": [{"co": {"X": 1.0, "Y": 1.0}, "interpolation": 2}]}, "shear_x": {"Points": [{"co": {"X": 1.0, "Y": 0.0}, "interpolation": 2}]}, "shear_y": {"Points": [{"co": {"X": 1.0, "Y": 0.0}, "interpolation": 2}]}, "start": 5.066666666666677, "time": {"Points": [{"co": {"X": 1.0, "Y": 1.0}, "interpolation": 2}]}, "volume": {"Points": [{"co": {"X": 1.0, "Y": 1.0}, "interpolation": 2}]}, "wave_color": {"alpha": {"Points": [{"co": {"X": 1.0, "Y": 255.0}, "handle_left": {"X": 0.5, "Y": 1.0}, "handle_right": {"X": 0.5, "Y": 0.0}, "handle_type": 0, "interpolation": 0}]}, "blue": {"Points": [{"co": {"X": 1.0, "Y": 255.0}, "handle_left": {"X": 0.5, "Y": 1.0}, "handle_right": {"X": 0.5, "Y": 0.0}, "handle_type": 0, "interpolation": 0}]}, "green": {"Points": [{"co": {"X": 1.0, "Y": 123.0}, "handle_left": {"X": 0.5, "Y": 1.0}, "handle_right": {"X": 0.5, "Y": 0.0}, "handle_type": 0, "interpolation": 0}]}, "red": {"Points": [{"co": {"X": 1.0, "Y": 0.0}, "handle_left": {"X": 0.5, "Y": 1.0}, "handle_right": {"X": 0.5, "Y": 0.0}, "handle_type": 0, "interpolation": 0}]}}, "waveform": false, "file_id": "651U5IA9TQ", "title": "IMG_0065.MOV", "image": "C:\\Users\\Brian Zick\\.openshot_qt\\thumbnail\\VW73LROR7B-153.png"}, "partial": false, "old_values": {"alpha": {"Points": [{"co": {"X": 1.0, "Y": 1.0}, "interpolation": 2}]}, "anchor": 0, "channel_filter": {"Points": [{"co": {"X": 1.0, "Y": -1.0}, "interpolation": 2}]}, "channel_mapping": {"Points": [{"co": {"X": 1.0, "Y": -1.0}, "interpolation": 2}]}, "crop_height": {"Points": [{"co": {"X": 1.0, "Y": -1.0}, "interpolation": 2}]}, "crop_width": {"Points": [{"co": {"X": 1.0, "Y": -1.0}, "interpolation": 2}]}, "crop_x": {"Points": [{"co": {"X": 1.0, "Y": 0.0}, "interpolation": 2}]}, "crop_y": {"Points": [{"co": {"X": 1.0, "Y": 0.0}, "interpolation": 2}]}, "display": 0, "duration": 47.96834564208984, "effects": [], "end": 47.96834564208984, "gravity": 4, "has_audio": {"Points": [{"co": {"X": 1.0, "Y": -1.0}, "interpolation": 2}]}, "has_video": {"Points": [{"co": {"X": 1.0, "Y": -1.0}, "interpolation": 2}]}, "id": "VW73LROR7B", "layer": 0, "location_x": {"Points": [{"co": {"X": 1.0, "Y": 0.0}, "interpolation": 2}]}, "location_y": {"Points": [{"co": {"X": 1.0, "Y": 0.0}, "interpolation": 2}]}, "mixing": 0, "perspective_c1_x": {"Points": [{"co": {"X": 1.0, "Y": -1.0}, "interpolation": 2}]}, "perspective_c1_y": {"Points": [{"co": {"X": 1.0, "Y": -1.0}, "interpolation": 2}]}, "perspective_c2_x": {"Points": [{"co": {"X": 1.0, "Y": -1.0}, "interpolation": 2}]}, "perspective_c2_y": {"Points": [{"co": {"X": 1.0, "Y": -1.0}, "interpolation": 2}]}, "perspective_c3_x": {"Points": [{"co": {"X": 1.0, "Y": -1.0}, "interpolation": 2}]}, "perspective_c3_y": {"Points": [{"co": {"X": 1.0, "Y": -1.0}, "interpolation": 2}]}, "perspective_c4_x": {"Points": [{"co": {"X": 1.0, "Y": -1.0}, "interpolation": 2}]}, "perspective_c4_y": {"Points": [{"co": {"X": 1.0, "Y": -1.0}, "interpolation": 2}]}, "position": 107.36666666666666, "reader": {"acodec": "aac", "audio_bit_rate": 100734, "audio_stream_index": 1, "audio_timebase": {"den": 44100, "num": 1}, "channel_layout": 4, "channels": 1, "display_ratio": {"den": 9, "num": 16}, "duration": 47.96834564208984, "file_size": "93194432", "fps": {"den": 28781, "num": 862800}, "has_audio": true, "has_single_image": false, "has_video": true, "height": 1080, "interlaced_frame": false, "metadata": {"com.apple.quicktime.creationdate": "2019-01-20T14:58:37-0500", "com.apple.quicktime.location.ISO6709": "+42.8173-073.9336+075.832/", "com.apple.quicktime.make": "Apple", "com.apple.quicktime.model": "iPhone SE", "com.apple.quicktime.software": "12.1.2", "compatible_brands": "qt", "creation_time": "2019-01-20T19:58:37.000000Z", "encoder": "H.264", "handler_name": "Core Media Data Handler", "language": "und", "major_brand": "qt", "minor_version": "0"}, "path": "C:/ECE-218/Projects/Project_1/IMG_0065.MOV", "pixel_format": 0, "pixel_ratio": {"den": 1, "num": 1}, "sample_rate": 44100, "top_field_first": true, "type": "FFmpegReader", "vcodec": "h264", "video_bit_rate": 1942832, "video_length": "1438", "video_stream_index": 0, "video_timebase": {"den": 600, "num": 1}, "width": 1920}, "rotation": {"Points": [{"co": {"X": 1.0, "Y": 0.0}, "interpolation": 2}]}, "scale": 1, "scale_x": {"Points": [{"co": {"X": 1.0, "Y": 1.0}, "interpolation": 2}]}, "scale_y": {"Points": [{"co": {"X": 1.0, "Y": 1.0}, "interpolation": 2}]}, "shear_x": {"Points": [{"co": {"X": 1.0, "Y": 0.0}, "interpolation": 2}]}, "shear_y": {"Points": [{"co": {"X": 1.0, "Y": 0.0}, "interpolation": 2}]}, "start": 0, "time": {"Points": [{"co": {"X": 1.0, "Y": 1.0}, "interpolation": 2}]}, "volume": {"Points": [{"co": {"X": 1.0, "Y": 1.0}, "interpolation": 2}]}, "wave_color": {"alpha": {"Points": [{"co": {"X": 1.0, "Y": 255.0}, "handle_left": {"X": 0.5, "Y": 1.0}, "handle_right": {"X": 0.5, "Y": 0.0}, "handle_type": 0, "interpolation": 0}]}, "blue": {"Points": [{"co": {"X": 1.0, "Y": 255.0}, "handle_left": {"X": 0.5, "Y": 1.0}, "handle_right": {"X": 0.5, "Y": 0.0}, "handle_type": 0, "interpolation": 0}]}, "green": {"Points": [{"co": {"X": 1.0, "Y": 123.0}, "handle_left": {"X": 0.5, "Y": 1.0}, "handle_right": {"X": 0.5, "Y": 0.0}, "handle_type": 0, "interpolation": 0}]}, "red": {"Points": [{"co": {"X": 1.0, "Y": 0.0}, "handle_left": {"X": 0.5, "Y": 1.0}, "handle_right": {"X": 0.5, "Y": 0.0}, "handle_type": 0, "interpolation": 0}]}}, "waveform": false, "file_id": "651U5IA9TQ", "title": "IMG_0065.MOV", "image": "C:\\Users\\Brian Zick\\.openshot_qt\\thumbnail\\651U5IA9TQ.png"}}, {"type": "update", "key": ["clips", {"id": "VW73LROR7B"}], "value": {"id": "VW73LROR7B", "layer": 0, "position": 107.36666666666666, "image": "C:\\Users\\Brian Zick\\.openshot_qt\\thumbnail\\VW73LROR7B-153.png", "start": 5.066666666666677, "end": 47.96834564208984}, "partial": false, "old_values": {"alpha": {"Points": [{"co": {"X": 1.0, "Y": 1.0}, "interpolation": 2}]}, "anchor": 0, "channel_filter": {"Points": [{"co": {"X": 1.0, "Y": -1.0}, "interpolation": 2}]}, "channel_mapping": {"Points": [{"co": {"X": 1.0, "Y": -1.0}, "interpolation": 2}]}, "crop_height": {"Points": [{"co": {"X": 1.0, "Y": -1.0}, "interpolation": 2}]}, "crop_width": {"Points": [{"co": {"X": 1.0, "Y": -1.0}, "interpolation": 2}]}, "crop_x": {"Points": [{"co": {"X": 1.0, "Y": 0.0}, "interpolation": 2}]}, "crop_y": {"Points": [{"co": {"X": 1.0, "Y": 0.0}, "interpolation": 2}]}, "display": 0, "duration": 47.96834564208984, "effects": [], "end": 47.96834564208984, "gravity": 4, "has_audio": {"Points": [{"co": {"X": 1.0, "Y": -1.0}, "interpolation": 2}]}, "has_video": {"Points": [{"co": {"X": 1.0, "Y": -1.0}, "interpolation": 2}]}, "id": "VW73LROR7B", "layer": 0, "location_x": {"Points": [{"co": {"X": 1.0, "Y": 0.0}, "interpolation": 2}]}, "location_y": {"Points": [{"co": {"X": 1.0, "Y": 0.0}, "interpolation": 2}]}, "mixing": 0, "perspective_c1_x": {"Points": [{"co": {"X": 1.0, "Y": -1.0}, "interpolation": 2}]}, "perspective_c1_y": {"Points": [{"co": {"X": 1.0, "Y": -1.0}, "interpolation": 2}]}, "perspective_c2_x": {"Points": [{"co": {"X": 1.0, "Y": -1.0}, "interpolation": 2}]}, "perspective_c2_y": {"Points": [{"co": {"X": 1.0, "Y": -1.0}, "interpolation": 2}]}, "perspective_c3_x": {"Points": [{"co": {"X": 1.0, "Y": -1.0}, "interpolation": 2}]}, "perspective_c3_y": {"Points": [{"co": {"X": 1.0, "Y": -1.0}, "interpolation": 2}]}, "perspective_c4_x": {"Points": [{"co": {"X": 1.0, "Y": -1.0}, "interpolation": 2}]}, "perspective_c4_y": {"Points": [{"co": {"X": 1.0, "Y": -1.0}, "interpolation": 2}]}, "position": 112.43333333333334, "reader": {"acodec": "aac", "audio_bit_rate": 100734, "audio_stream_index": 1, "audio_timebase": {"den": 44100, "num": 1}, "channel_layout": 4, "channels": 1, "display_ratio": {"den": 9, "num": 16}, "duration": 47.96834564208984, "file_size": "93194432", "fps": {"den": 28781, "num": 862800}, "has_audio": true, "has_single_image": false, "has_video": true, "height": 1080, "interlaced_frame": false, "metadata": {"com.apple.quicktime.creationdate": "2019-01-20T14:58:37-0500", "com.apple.quicktime.location.ISO6709": "+42.8173-073.9336+075.832/", "com.apple.quicktime.make": "Apple", "com.apple.quicktime.model": "iPhone SE", "com.apple.quicktime.software": "12.1.2", "compatible_brands": "qt", "creation_time": "2019-01-20T19:58:37.000000Z", "encoder": "H.264", "handler_name": "Core Media Data Handler", "language": "und", "major_brand": "qt", "minor_version": "0"}, "path": "C:/ECE-218/Projects/Project_1/IMG_0065.MOV", "pixel_format": 0, "pixel_ratio": {"den": 1, "num": 1}, "sample_rate": 44100, "top_field_first": true, "type": "FFmpegReader", "vcodec": "h264", "video_bit_rate": 1942832, "video_length": "1438", "video_stream_index": 0, "video_timebase": {"den": 600, "num": 1}, "width": 1920}, "rotation": {"Points": [{"co": {"X": 1.0, "Y": 0.0}, "interpolation": 2}]}, "scale": 1, "scale_x": {"Points": [{"co": {"X": 1.0, "Y": 1.0}, "interpolation": 2}]}, "scale_y": {"Points": [{"co": {"X": 1.0, "Y": 1.0}, "interpolation": 2}]}, "shear_x": {"Points": [{"co": {"X": 1.0, "Y": 0.0}, "interpolation": 2}]}, "shear_y": {"Points": [{"co": {"X": 1.0, "Y": 0.0}, "interpolation": 2}]}, "start": 5.066666666666677, "time": {"Points": [{"co": {"X": 1.0, "Y": 1.0}, "interpolation": 2}]}, "volume": {"Points": [{"co": {"X": 1.0, "Y": 1.0}, "interpolation": 2}]}, "wave_color": {"alpha": {"Points": [{"co": {"X": 1.0, "Y": 255.0}, "handle_left": {"X": 0.5, "Y": 1.0}, "handle_right": {"X": 0.5, "Y": 0.0}, "handle_type": 0, "interpolation": 0}]}, "blue": {"Points": [{"co": {"X": 1.0, "Y": 255.0}, "handle_left": {"X": 0.5, "Y": 1.0}, "handle_right": {"X": 0.5, "Y": 0.0}, "handle_type": 0, "interpolation": 0}]}, "green": {"Points": [{"co": {"X": 1.0, "Y": 123.0}, "handle_left": {"X": 0.5, "Y": 1.0}, "handle_right": {"X": 0.5, "Y": 0.0}, "handle_type": 0, "interpolation": 0}]}, "red": {"Points": [{"co": {"X": 1.0, "Y": 0.0}, "handle_left": {"X": 0.5, "Y": 1.0}, "handle_right": {"X": 0.5, "Y": 0.0}, "handle_type": 0, "interpolation": 0}]}}, "waveform": false, "file_id": "651U5IA9TQ", "title": "IMG_0065.MOV", "image": "C:\\Users\\Brian Zick\\.openshot_qt\\thumbnail\\VW73LROR7B-153.png"}}, {"type": "update", "key": ["clips", {"id": "VW73LROR7B"}], "value": {"alpha": {"Points": [{"co": {"X": 1.0, "Y": 1.0}, "interpolation": 2}]}, "anchor": 0, "channel_filter": {"Points": [{"co": {"X": 1.0, "Y": -1.0}, "interpolation": 2}]}, "channel_mapping": {"Points": [{"co": {"X": 1.0, "Y": -1.0}, "interpolation": 2}]}, "crop_height": {"Points": [{"co": {"X": 1.0, "Y": -1.0}, "interpolation": 2}]}, "crop_width": {"Points": [{"co": {"X": 1.0, "Y": -1.0}, "interpolation": 2}]}, "crop_x": {"Points": [{"co": {"X": 1.0, "Y": 0.0}, "interpolation": 2}]}, "crop_y": {"Points": [{"co": {"X": 1.0, "Y": 0.0}, "interpolation": 2}]}, "display": 0, "duration": 47.96834564208984, "effects": [], "end": 46.93333333333334, "gravity": 4, "has_audio": {"Points": [{"co": {"X": 1.0, "Y": -1.0}, "interpolation": 2}]}, "has_video": {"Points": [{"co": {"X": 1.0, "Y": -1.0}, "interpolation": 2}]}, "id": "VW73LROR7B", "layer": 0, "location_x": {"Points": [{"co": {"X": 1.0, "Y": 0.0}, "interpolation": 2}]}, "location_y": {"Points": [{"co": {"X": 1.0, "Y": 0.0}, "interpolation": 2}]}, "mixing": 0, "perspective_c1_x": {"Points": [{"co": {"X": 1.0, "Y": -1.0}, "interpolation": 2}]}, "perspective_c1_y": {"Points": [{"co": {"X": 1.0, "Y": -1.0}, "interpolation": 2}]}, "perspective_c2_x": {"Points": [{"co": {"X": 1.0, "Y": -1.0}, "interpolation": 2}]}, "perspective_c2_y": {"Points": [{"co": {"X": 1.0, "Y": -1.0}, "interpolation": 2}]}, "perspective_c3_x": {"Points": [{"co": {"X": 1.0, "Y": -1.0}, "interpolation": 2}]}, "perspective_c3_y": {"Points": [{"co": {"X": 1.0, "Y": -1.0}, "interpolation": 2}]}, "perspective_c4_x": {"Points": [{"co": {"X": 1.0, "Y": -1.0}, "interpolation": 2}]}, "perspective_c4_y": {"Points": [{"co": {"X": 1.0, "Y": -1.0}, "interpolation": 2}]}, "position": 107.36666666666666, "rotation": {"Points": [{"co": {"X": 1.0, "Y": 0.0}, "interpolation": 2}]}, "scale": 1, "scale_x": {"Points": [{"co": {"X": 1.0, "Y": 1.0}, "interpolation": 2}]}, "scale_y": {"Points": [{"co": {"X": 1.0, "Y": 1.0}, "interpolation": 2}]}, "shear_x": {"Points": [{"co": {"X": 1.0, "Y": 0.0}, "interpolation": 2}]}, "shear_y": {"Points": [{"co": {"X": 1.0, "Y": 0.0}, "interpolation": 2}]}, "start": 5.066666666666677, "time": {"Points": [{"co": {"X": 1.0, "Y": 1.0}, "interpolation": 2}]}, "volume": {"Points": [{"co": {"X": 1.0, "Y": 1.0}, "interpolation": 2}]}, "wave_color": {"alpha": {"Points": [{"co": {"X": 1.0, "Y": 255.0}, "handle_left": {"X": 0.5, "Y": 1.0}, "handle_right": {"X": 0.5, "Y": 0.0}, "handle_type": 0, "interpolation": 0}]}, "blue": {"Points": [{"co": {"X": 1.0, "Y": 255.0}, "handle_left": {"X": 0.5, "Y": 1.0}, "handle_right": {"X": 0.5, "Y": 0.0}, "handle_type": 0, "interpolation": 0}]}, "green": {"Points": [{"co": {"X": 1.0, "Y": 123.0}, "handle_left": {"X": 0.5, "Y": 1.0}, "handle_right": {"X": 0.5, "Y": 0.0}, "handle_type": 0, "interpolation": 0}]}, "red": {"Points": [{"co": {"X": 1.0, "Y": 0.0}, "handle_left": {"X": 0.5, "Y": 1.0}, "handle_right": {"X": 0.5, "Y": 0.0}, "handle_type": 0, "interpolation": 0}]}}, "waveform": false, "file_id": "651U5IA9TQ", "title": "IMG_0065.MOV", "image": "C:\\Users\\Brian Zick\\.openshot_qt\\thumbnail\\VW73LROR7B-153.png"}, "partial": false, "old_values": {"alpha": {"Points": [{"co": {"X": 1.0, "Y": 1.0}, "interpolation": 2}]}, "anchor": 0, "channel_filter": {"Points": [{"co": {"X": 1.0, "Y": -1.0}, "interpolation": 2}]}, "channel_mapping": {"Points": [{"co": {"X": 1.0, "Y": -1.0}, "interpolation": 2}]}, "crop_height": {"Points": [{"co": {"X": 1.0, "Y": -1.0}, "interpolation": 2}]}, "crop_width": {"Points": [{"co": {"X": 1.0, "Y": -1.0}, "interpolation": 2}]}, "crop_x": {"Points": [{"co": {"X": 1.0, "Y": 0.0}, "interpolation": 2}]}, "crop_y": {"Points": [{"co": {"X": 1.0, "Y": 0.0}, "interpolation": 2}]}, "display": 0, "duration": 47.96834564208984, "effects": [], "end": 47.96834564208984, "gravity": 4, "has_audio": {"Points": [{"co": {"X": 1.0, "Y": -1.0}, "interpolation": 2}]}, "has_video": {"Points": [{"co": {"X": 1.0, "Y": -1.0}, "interpolation": 2}]}, "id": "VW73LROR7B", "layer": 0, "location_x": {"Points": [{"co": {"X": 1.0, "Y": 0.0}, "interpolation": 2}]}, "location_y": {"Points": [{"co": {"X": 1.0, "Y": 0.0}, "interpolation": 2}]}, "mixing": 0, "perspective_c1_x": {"Points": [{"co": {"X": 1.0, "Y": -1.0}, "interpolation": 2}]}, "perspective_c1_y": {"Points": [{"co": {"X": 1.0, "Y": -1.0}, "interpolation": 2}]}, "perspective_c2_x": {"Points": [{"co": {"X": 1.0, "Y": -1.0}, "interpolation": 2}]}, "perspective_c2_y": {"Points": [{"co": {"X": 1.0, "Y": -1.0}, "interpolation": 2}]}, "perspective_c3_x": {"Points": [{"co": {"X": 1.0, "Y": -1.0}, "interpolation": 2}]}, "perspective_c3_y": {"Points": [{"co": {"X": 1.0, "Y": -1.0}, "interpolation": 2}]}, "perspective_c4_x": {"Points": [{"co": {"X": 1.0, "Y": -1.0}, "interpolation": 2}]}, "perspective_c4_y": {"Points": [{"co": {"X": 1.0, "Y": -1.0}, "interpolation": 2}]}, "position": 107.36666666666666, "reader": {"acodec": "aac", "audio_bit_rate": 100734, "audio_stream_index": 1, "audio_timebase": {"den": 44100, "num": 1}, "channel_layout": 4, "channels": 1, "display_ratio": {"den": 9, "num": 16}, "duration": 47.96834564208984, "file_size": "93194432", "fps": {"den": 28781, "num": 862800}, "has_audio": true, "has_single_image": false, "has_video": true, "height": 1080, "interlaced_frame": false, "metadata": {"com.apple.quicktime.creationdate": "2019-01-20T14:58:37-0500", "com.apple.quicktime.location.ISO6709": "+42.8173-073.9336+075.832/", "com.apple.quicktime.make": "Apple", "com.apple.quicktime.model": "iPhone SE", "com.apple.quicktime.software": "12.1.2", "compatible_brands": "qt", "creation_time": "2019-01-20T19:58:37.000000Z", "encoder": "H.264", "handler_name": "Core Media Data Handler", "language": "und", "major_brand": "qt", "minor_version": "0"}, "path": "C:/ECE-218/Projects/Project_1/IMG_0065.MOV", "pixel_format": 0, "pixel_ratio": {"den": 1, "num": 1}, "sample_rate": 44100, "top_field_first": true, "type": "FFmpegReader", "vcodec": "h264", "video_bit_rate": 1942832, "video_length": "1438", "video_stream_index": 0, "video_timebase": {"den": 600, "num": 1}, "width": 1920}, "rotation": {"Points": [{"co": {"X": 1.0, "Y": 0.0}, "interpolation": 2}]}, "scale": 1, "scale_x": {"Points": [{"co": {"X": 1.0, "Y": 1.0}, "interpolation": 2}]}, "scale_y": {"Points": [{"co": {"X": 1.0, "Y": 1.0}, "interpolation": 2}]}, "shear_x": {"Points": [{"co": {"X": 1.0, "Y": 0.0}, "interpolation": 2}]}, "shear_y": {"Points": [{"co": {"X": 1.0, "Y": 0.0}, "interpolation": 2}]}, "start": 5.066666666666677, "time": {"Points": [{"co": {"X": 1.0, "Y": 1.0}, "interpolation": 2}]}, "volume": {"Points": [{"co": {"X": 1.0, "Y": 1.0}, "interpolation": 2}]}, "wave_color": {"alpha": {"Points": [{"co": {"X": 1.0, "Y": 255.0}, "handle_left": {"X": 0.5, "Y": 1.0}, "handle_right": {"X": 0.5, "Y": 0.0}, "handle_type": 0, "interpolation": 0}]}, "blue": {"Points": [{"co": {"X": 1.0, "Y": 255.0}, "handle_left": {"X": 0.5, "Y": 1.0}, "handle_right": {"X": 0.5, "Y": 0.0}, "handle_type": 0, "interpolation": 0}]}, "green": {"Points": [{"co": {"X": 1.0, "Y": 123.0}, "handle_left": {"X": 0.5, "Y": 1.0}, "handle_right": {"X": 0.5, "Y": 0.0}, "handle_type": 0, "interpolation": 0}]}, "red": {"Points": [{"co": {"X": 1.0, "Y": 0.0}, "handle_left": {"X": 0.5, "Y": 1.0}, "handle_right": {"X": 0.5, "Y": 0.0}, "handle_type": 0, "interpolation": 0}]}}, "waveform": false, "file_id": "651U5IA9TQ", "title": "IMG_0065.MOV", "image": "C:\\Users\\Brian Zick\\.openshot_qt\\thumbnail\\VW73LROR7B-153.png"}}, {"type": "update", "key": ["export_path"], "value": "C:/ECE-218/Projects/Project_1", "partial": false, "old_values": ""}], "redo": []}, "version": {"openshot-qt": "2.4.3", "libopenshot": "0.2.2"}}